<svg width="3161" height="1556" viewBox="0 0 3161 1556" fill="none" xmlns="http://www.w3.org/2000/svg">
<path d="M1587.61 909.371C1586.72 919.791 1590.65 925.371 1599.46 926.151C1608.27 926.931 1624.49 920.681 1648.18 907.411C1724.45 863.241 1784.89 834.641 1829.49 821.601C1836.08 819.761 1843.49 817.981 1851.69 816.281C1855.68 816.631 1857.8 820.051 1858.06 826.521C1814.03 842.031 1761.87 868.151 1701.55 904.821C1636.95 944.371 1590.81 979.871 1563.16 1011.34C1559.54 1015.87 1552.83 1026.17 1542.99 1042.26C1533.15 1058.35 1514.63 1065.2 1487.47 1062.82C1477.07 1061.91 1464.41 1059.17 1449.51 1054.65C1428.27 1048.74 1417.93 1042.59 1418.48 1036.19C1419.3 1026.58 1426.71 1005.85 1440.73 973.971C1476.72 892.371 1560.62 768.571 1692.45 602.551C1708.62 582.991 1732.11 553.171 1762.94 513.081C1771.23 500.911 1775.76 490.411 1776.52 481.581C1777 475.981 1776.04 473.061 1773.64 472.851C1771.24 472.641 1768.26 474.401 1764.73 478.121C1454.72 777.851 1254.57 923.761 1164.25 915.841C1119.48 911.921 1100.55 869.911 1107.42 789.801C1113.47 719.321 1149.32 587.661 1214.99 394.861C1080.67 571.171 993.441 682.171 953.281 727.881C840.681 857.661 732.911 954.341 630.021 1017.97C498.351 1097.63 364.981 1131.56 229.901 1119.73C165.941 1114.13 112.441 1094.91 69.3507 1062.08C18.6807 1023.75 -4.03935 974.121 1.18065 913.251C6.34065 853.171 26.9407 810.181 62.9807 784.281C67.2407 781.441 70.5906 780.101 72.9906 780.311C75.3906 780.521 76.4807 781.831 76.2807 784.231C55.4107 811.461 44.3707 832.281 43.1407 846.701C37.4407 913.191 64.8207 969.251 125.341 1014.92C177.601 1053.4 238.511 1075.68 308.051 1081.77C356.801 1086.04 399.791 1082.54 437.001 1071.27C565.361 1030.04 711.341 914.911 874.941 725.851C972.361 613.321 1086.7 458.681 1217.95 261.941C1139.34 230.041 1060.35 198.101 980.951 166.121C889.561 133.101 807.091 113.361 733.561 106.921C622.451 97.1909 523.561 113.951 436.911 157.211C334.231 208.751 278.441 286.601 269.501 390.731C260.081 500.491 285.351 557.981 345.301 563.231C350.881 563.721 353.551 565.581 353.281 568.771C352.941 572.791 347.561 574.321 337.181 573.411C319.591 571.871 302.751 566.371 286.661 556.881C226.651 524.191 199.461 474.991 205.101 409.301C216.031 281.921 293.321 188.211 437.001 128.151C554.721 79.5609 683.121 61.3308 822.201 73.5108C888.541 79.3208 962.891 95.1209 1045.23 120.891C1073.39 130.621 1144.84 156.671 1259.59 198.991C1267.49 181.931 1293.82 175.351 1338.59 179.271C1351.37 180.391 1362.06 177.901 1370.64 171.791C1379.2 165.691 1384.7 162.731 1387.1 162.941C1391.9 163.361 1394.12 165.581 1393.78 169.581C1393.71 170.391 1377.96 189.591 1346.56 227.191L1347.76 227.301C1348.55 227.371 1348.92 227.821 1348.85 228.611C1374.01 235.661 1392.99 239.741 1405.78 240.861C1414.57 241.631 1427.64 239.561 1444.97 234.611C1447.37 234.821 1448.47 236.131 1448.26 238.531C1447.85 243.341 1444.26 247.471 1437.53 250.911C1409.5 267.831 1392.54 277.651 1386.68 280.351C1369.92 287.781 1349.93 290.871 1326.69 289.621C1298.03 370.251 1270.25 454.591 1243.37 542.621C1219.51 623.671 1205.58 687.431 1201.59 733.881C1196.02 798.771 1209.61 832.651 1242.4 835.521C1271.96 838.111 1320.8 813.331 1388.9 761.191C1398.44 753.151 1443.59 715.131 1524.31 647.141C1665 527.911 1786.27 409.791 1888.12 292.801C1903.28 275.571 1918.48 257.931 1933.73 239.891C1956.84 214.491 1973.99 202.251 1985.2 203.241C1992.39 203.871 2004.82 209.011 2022.53 218.611C2040.22 228.241 2049.59 236.321 2050.65 242.861C2036.55 256.971 2018.5 274.761 1996.54 296.231C1861.46 434.521 1733.32 618.631 1612.12 848.521C1596.85 876.241 1588.68 896.521 1587.58 909.331L1587.61 909.371ZM948.811 456.321C943.451 518.801 907.231 607.651 840.171 722.841C829.781 740.511 821.801 749.071 816.221 748.591C813.821 748.381 812.791 746.281 813.141 742.271C813.621 736.671 815.971 727.991 820.201 716.261C849.851 633.311 867.521 558.991 873.161 493.291C877.281 445.221 870.151 420.381 851.771 418.771C845.361 418.211 839.711 420.741 834.811 426.371C829.891 431.991 826.641 434.741 825.041 434.601C822.641 434.391 821.551 433.081 821.751 430.681C821.891 429.081 822.881 426.751 824.771 423.681C849.191 383.051 876.991 364.091 908.171 366.821C940.131 369.621 953.691 399.461 948.811 456.341V456.321Z" fill="url(#paint0_linear_157_499)"/>
<path d="M2431.71 724.703C2394.17 745.113 2351.33 776.253 2303.19 818.153C2251.25 862.733 2215.12 900.923 2194.83 932.703C2192.65 936.063 2188.06 945.753 2181.09 961.793C2174.11 977.833 2157.24 986.903 2130.52 988.973C2121.09 989.703 2108.82 989.463 2093.76 988.243C2073.08 985.863 2062.6 981.923 2062.28 976.373C2061.6 964.503 2084.61 918.193 2131.33 837.443C2171.51 766.763 2201.09 717.953 2220.1 691.023C2197.03 715.883 2145.29 764.023 2064.88 835.443C2025.8 870.283 1965.51 920.673 1883.99 986.623C1856.68 1006.22 1830.83 1016.99 1806.46 1018.88C1798.59 1019.49 1792.24 1018.79 1787.39 1016.78C1789.75 1003.09 1800.78 974.803 1820.45 931.923C1894.59 764.783 1985.73 639.253 2093.88 555.313C2107.49 544.713 2144.17 537.103 2203.92 532.463C2227.51 530.633 2261.4 529.603 2305.62 529.343C2363.18 528.063 2393.32 530.103 2396 535.453C2374.3 542.703 2356.83 554.793 2343.58 571.723C2295.77 633.473 2249.44 720.943 2204.59 834.143C2197.67 851.373 2194.45 863.963 2194.9 871.863C2195.17 876.613 2196.48 878.903 2198.84 878.713C2201.2 878.533 2204.63 876.293 2209.12 871.953C2274.09 806.503 2338.84 758.133 2403.39 726.883C2415.64 720.383 2422.56 717.053 2424.15 716.923C2427.28 716.683 2429.8 719.283 2431.7 724.683L2431.71 724.703ZM2245.82 601.983C2244.55 579.833 2212.08 571.203 2148.39 576.153C2131.09 577.493 2119.79 580.363 2114.53 584.743C2081.37 612.773 2044.49 658.153 2003.86 720.943C1966.05 777.953 1937.42 829.853 1918 876.683C1909.6 895.633 1905.59 908.263 1905.95 914.583C1906.22 919.333 1908.72 921.523 1913.43 921.163C1918.92 920.733 1929.65 914.743 1945.57 903.163C2035.87 838.913 2125.21 758.033 2213.63 660.543C2235.91 635.763 2246.64 616.243 2245.82 601.993V601.983Z" fill="url(#paint1_linear_157_499)"/>
<path d="M2669.39 698.051C2625.93 722.961 2579.94 758.771 2531.45 805.461C2474.94 859.401 2440.23 905.831 2427.31 944.731C2422.42 959.941 2407.83 968.531 2383.54 970.481C2374.9 971.171 2363.44 970.861 2349.1 969.541C2330.68 966.891 2321.21 962.731 2320.67 957.001C2320.21 952.101 2321.67 942.531 2325.06 928.251C2334.45 885.501 2357.1 832.651 2393.02 769.651C2444.41 678.261 2472.43 627.851 2477.08 618.411C2485.1 602.951 2488.64 590.311 2487.72 580.511C2487.1 573.981 2482.48 566.941 2473.88 559.391C2473.57 556.141 2486.77 547.451 2513.48 533.361C2540.18 519.291 2557.07 511.951 2564.12 511.381C2566.47 511.191 2567.8 512.741 2568.11 516.001C2569.19 527.451 2551.52 570.441 2515.12 644.991C2494.52 686.171 2471.7 741.531 2446.67 811.041C2440.37 828.021 2437.65 841.001 2438.5 849.981C2438.96 854.881 2440.37 857.241 2442.72 857.051C2445.07 856.861 2448.4 854.551 2452.72 850.071C2513.63 784.261 2575.3 734.851 2637.75 701.831C2652.01 694.111 2659.94 690.171 2661.51 690.051C2665.42 689.741 2668.05 692.421 2669.37 698.061L2669.39 698.051ZM2536.81 460.481C2532.11 460.861 2529.6 459.421 2529.29 456.141C2529.14 454.511 2530.6 449.241 2533.72 440.351C2536.82 431.451 2538.04 423.331 2537.34 415.981C2537.03 412.731 2535.8 408.081 2533.66 402.081C2531.5 396.071 2530.33 391.851 2530.09 389.401C2529.4 382.051 2541.19 377.391 2565.49 375.441C2626.63 370.531 2657.81 374.621 2659.04 387.681C2659.27 390.131 2656.75 392.801 2651.51 395.691C2640.83 399.851 2624.99 407.701 2603.98 419.271C2567.01 446.131 2544.62 459.851 2536.79 460.481H2536.81Z" fill="url(#paint2_linear_157_499)"/>
<path d="M2866.43 288.022C2852.39 289.172 2835.57 279.652 2815.99 259.422C2800.92 243.022 2792.29 227.362 2790.07 212.442C2786.26 186.752 2820.3 131.492 2892.24 46.6916C2917.17 17.8016 2940.17 2.48171 2961.24 0.751707C2967.48 0.241707 2970.91 2.06166 2971.52 6.20166C2972.38 12.0117 2958.36 32.0418 2929.5 66.3018C2898.64 103.262 2882.42 140.252 2880.81 177.312C2882.36 209.102 2882.91 242.202 2882.51 276.642C2878.03 283.742 2872.67 287.522 2866.43 288.032V288.022Z" fill="url(#paint3_linear_157_499)"/>
<path d="M3113.76 518.552C3109.93 519.282 3107.41 516.043 3106.18 508.863C3105.5 504.883 3105.15 498.352 3105.19 489.272C3105.21 480.212 3104.88 473.683 3104.2 469.683C3098.58 436.963 3084.69 422.693 3062.52 426.883C3047.99 429.633 3035.1 441.963 3023.88 463.863C3007.4 496.653 3005.31 553.503 3017.63 634.403C3032.25 728.883 3037.06 791.422 3032.07 822.042C3022.04 883.272 2982.65 920.393 2913.85 933.413C2896.25 936.743 2876.4 935.963 2854.26 931.093C2827.75 923.753 2813.11 912.093 2810.37 896.133C2808.18 883.373 2810.92 876.252 2818.55 874.802C2817.8 874.942 2826.06 880.602 2843.36 891.742C2860.66 902.882 2878.87 906.662 2897.98 903.042C2927.8 897.402 2946.79 879.392 2955 848.982C2963.19 818.592 2962.76 753.993 2953.7 655.153C2944.13 535.003 2977.49 451.222 3053.82 403.802C3063.83 397.792 3079.92 392.682 3102.1 388.482C3133.44 382.552 3150.01 384.793 3151.79 395.153C3152.2 397.553 3151.28 401.432 3149.05 406.802C3140.51 430.672 3131.58 463.682 3122.24 505.822C3120.41 513.582 3117.59 517.832 3113.77 518.552H3113.76Z" fill="url(#paint4_linear_157_499)"/>
<path d="M69 1325.1L55.5 1443H10.8L42 1222.5L129.9 1358.1L217.8 1222.5L249 1443H204.3L190.8 1325.1L129.9 1423.5L69 1325.1ZM332.763 1395.3L337.863 1361.4H438.663L443.763 1395.3H332.763ZM387.663 1301.1L356.163 1373.4L357.063 1383L329.463 1443H281.163L387.663 1220.7L494.163 1443H445.563L418.563 1384.8L419.163 1374L387.663 1301.1ZM556.245 1372.5C560.645 1380.3 565.445 1387.1 570.645 1392.9C576.045 1398.7 581.945 1403.2 588.345 1406.4C594.745 1409.6 601.645 1411.2 609.045 1411.2C617.645 1411.2 624.645 1409 630.045 1404.6C635.445 1400.2 638.145 1394.2 638.145 1386.6C638.145 1380 636.445 1374.7 633.045 1370.7C629.845 1366.7 624.945 1363.2 618.345 1360.2C611.945 1357 604.045 1353.6 594.645 1350C589.645 1348.2 583.845 1345.8 577.245 1342.8C570.845 1339.6 564.745 1335.6 558.945 1330.8C553.145 1325.8 548.345 1319.8 544.545 1312.8C540.745 1305.6 538.845 1297 538.845 1287C538.845 1275 541.845 1264.7 547.845 1256.1C554.045 1247.3 562.345 1240.6 572.745 1236C583.345 1231.2 595.145 1228.8 608.145 1228.8C621.545 1228.8 633.045 1231.1 642.645 1235.7C652.445 1240.1 660.545 1245.8 666.945 1252.8C673.545 1259.6 678.645 1266.7 682.245 1274.1L648.645 1292.7C645.845 1287.7 642.445 1283.2 638.445 1279.2C634.645 1275 630.245 1271.7 625.245 1269.3C620.245 1266.7 614.545 1265.4 608.145 1265.4C599.745 1265.4 593.445 1267.4 589.245 1271.4C585.045 1275.2 582.945 1279.7 582.945 1284.9C582.945 1290.1 584.645 1294.7 588.045 1298.7C591.445 1302.5 596.645 1306.2 603.645 1309.8C610.645 1313.2 619.445 1316.7 630.045 1320.3C636.845 1322.7 643.345 1325.7 649.545 1329.3C655.945 1332.9 661.645 1337.3 666.645 1342.5C671.845 1347.5 675.845 1353.5 678.645 1360.5C681.645 1367.3 683.145 1375.2 683.145 1384.2C683.145 1394.4 681.145 1403.5 677.145 1411.5C673.145 1419.5 667.645 1426.3 660.645 1431.9C653.645 1437.3 645.745 1441.4 636.945 1444.2C628.345 1447.2 619.245 1448.7 609.645 1448.7C596.845 1448.7 584.845 1446.3 573.645 1441.5C562.645 1436.5 553.045 1429.8 544.845 1421.4C536.645 1413 530.245 1403.9 525.645 1394.1L556.245 1372.5ZM757.42 1372.5C761.82 1380.3 766.62 1387.1 771.82 1392.9C777.22 1398.7 783.12 1403.2 789.52 1406.4C795.92 1409.6 802.82 1411.2 810.22 1411.2C818.82 1411.2 825.82 1409 831.22 1404.6C836.62 1400.2 839.32 1394.2 839.32 1386.6C839.32 1380 837.62 1374.7 834.22 1370.7C831.02 1366.7 826.12 1363.2 819.52 1360.2C813.12 1357 805.22 1353.6 795.82 1350C790.82 1348.2 785.02 1345.8 778.42 1342.8C772.02 1339.6 765.92 1335.6 760.12 1330.8C754.32 1325.8 749.52 1319.8 745.72 1312.8C741.92 1305.6 740.02 1297 740.02 1287C740.02 1275 743.02 1264.7 749.02 1256.1C755.22 1247.3 763.52 1240.6 773.92 1236C784.52 1231.2 796.32 1228.8 809.32 1228.8C822.72 1228.8 834.22 1231.1 843.82 1235.7C853.62 1240.1 861.72 1245.8 868.12 1252.8C874.72 1259.6 879.82 1266.7 883.42 1274.1L849.82 1292.7C847.02 1287.7 843.62 1283.2 839.62 1279.2C835.82 1275 831.42 1271.7 826.42 1269.3C821.42 1266.7 815.72 1265.4 809.32 1265.4C800.92 1265.4 794.62 1267.4 790.42 1271.4C786.22 1275.2 784.12 1279.7 784.12 1284.9C784.12 1290.1 785.82 1294.7 789.22 1298.7C792.62 1302.5 797.82 1306.2 804.82 1309.8C811.82 1313.2 820.62 1316.7 831.22 1320.3C838.02 1322.7 844.52 1325.7 850.72 1329.3C857.12 1332.9 862.82 1337.3 867.82 1342.5C873.02 1347.5 877.02 1353.5 879.82 1360.5C882.82 1367.3 884.32 1375.2 884.32 1384.2C884.32 1394.4 882.32 1403.5 878.32 1411.5C874.32 1419.5 868.82 1426.3 861.82 1431.9C854.82 1437.3 846.92 1441.4 838.12 1444.2C829.52 1447.2 820.42 1448.7 810.82 1448.7C798.02 1448.7 786.02 1446.3 774.82 1441.5C763.82 1436.5 754.22 1429.8 746.02 1421.4C737.82 1413 731.42 1403.9 726.82 1394.1L757.42 1372.5ZM969.396 1395.3L974.496 1361.4H1075.3L1080.4 1395.3H969.396ZM1024.3 1301.1L992.796 1373.4L993.696 1383L966.096 1443H917.796L1024.3 1220.7L1130.8 1443H1082.2L1055.2 1384.8L1055.8 1374L1024.3 1301.1ZM1267.5 1365V1330.8H1371C1371.6 1346.8 1369.7 1361.9 1365.3 1376.1C1361.1 1390.3 1354.4 1402.9 1345.2 1413.9C1336.2 1424.7 1325 1433.2 1311.6 1439.4C1298.2 1445.6 1282.9 1448.7 1265.7 1448.7C1249.5 1448.7 1234.5 1446 1220.7 1440.6C1207.1 1435.2 1195.2 1427.6 1185 1417.8C1175 1408 1167.2 1396.3 1161.6 1382.7C1156.2 1369.1 1153.5 1354.2 1153.5 1338C1153.5 1321.8 1156.3 1307 1161.9 1293.6C1167.7 1280 1175.7 1268.4 1185.9 1258.8C1196.1 1249.2 1208.1 1241.8 1221.9 1236.6C1235.7 1231.4 1250.7 1228.8 1266.9 1228.8C1281.3 1228.8 1294.2 1230.8 1305.6 1234.8C1317.2 1238.8 1327.4 1244.4 1336.2 1251.6C1345.2 1258.6 1352.9 1267 1359.3 1276.8L1322.7 1298.1C1317.5 1288.9 1310.2 1281.5 1300.8 1275.9C1291.6 1270.1 1280.3 1267.2 1266.9 1267.2C1254.3 1267.2 1242.8 1270.1 1232.4 1275.9C1222 1281.5 1213.7 1289.6 1207.5 1300.2C1201.5 1310.8 1198.5 1323.4 1198.5 1338C1198.5 1352.4 1201.5 1365.1 1207.5 1376.1C1213.5 1386.9 1221.6 1395.3 1231.8 1401.3C1242.2 1407.3 1253.9 1410.3 1266.9 1410.3C1275.5 1410.3 1283.2 1409.2 1290 1407C1296.8 1404.6 1302.6 1401.3 1307.4 1397.1C1312.4 1392.9 1316.6 1388.1 1320 1382.7C1323.4 1377.3 1326 1371.4 1327.8 1365H1267.5ZM1454.62 1443V1406.7H1560.52V1443H1454.62ZM1454.62 1269.3V1233H1560.52V1269.3H1454.62ZM1454.62 1349.4V1313.7H1554.52V1349.4H1454.62ZM1427.02 1233H1468.42V1443H1427.02V1233ZM1713.75 1271.7V1233H1869.75V1271.7H1813.05V1443H1770.15V1271.7H1713.75ZM1929.22 1350.6V1311.9H2083.42V1350.6H1929.22ZM2056.12 1233H2099.02V1443H2056.12V1233ZM1915.12 1233H1958.02V1443H1915.12V1233ZM2192.82 1443V1406.7H2298.72V1443H2192.82ZM2192.82 1269.3V1233H2298.72V1269.3H2192.82ZM2192.82 1349.4V1313.7H2292.72V1349.4H2192.82ZM2165.22 1233H2206.62V1443H2165.22V1233ZM2409.7 1345.2H2455L2523.4 1443H2472.7L2409.7 1345.2ZM2362 1233H2404.9V1443H2362V1233ZM2388.1 1269.6V1233H2432.5C2449.1 1233 2463.2 1235.8 2474.8 1241.4C2486.4 1247 2495.3 1254.8 2501.5 1264.8C2507.7 1274.8 2510.8 1286.5 2510.8 1299.9C2510.8 1313.1 2507.7 1324.8 2501.5 1335C2495.3 1345 2486.4 1352.8 2474.8 1358.4C2463.2 1364 2449.1 1366.8 2432.5 1366.8H2388.1V1332.6H2429.8C2437.4 1332.6 2443.9 1331.4 2449.3 1329C2454.9 1326.4 2459.2 1322.8 2462.2 1318.2C2465.2 1313.4 2466.7 1307.7 2466.7 1301.1C2466.7 1294.5 2465.2 1288.9 2462.2 1284.3C2459.2 1279.5 2454.9 1275.9 2449.3 1273.5C2443.9 1270.9 2437.4 1269.6 2429.8 1269.6H2388.1ZM2598.14 1395.3L2603.24 1361.4H2704.04L2709.14 1395.3H2598.14ZM2653.04 1301.1L2621.54 1373.4L2622.44 1383L2594.84 1443H2546.54L2653.04 1220.7L2759.54 1443H2710.94L2683.94 1384.8L2684.54 1374L2653.04 1301.1ZM2803.32 1233H2846.22V1443H2803.32V1233ZM2829.42 1269.3V1233H2871.12C2887.72 1233 2901.82 1235.7 2913.42 1241.1C2925.22 1246.5 2934.22 1254.2 2940.42 1264.2C2946.62 1274.2 2949.72 1286.1 2949.72 1299.9C2949.72 1313.5 2946.62 1325.4 2940.42 1335.6C2934.22 1345.6 2925.22 1353.3 2913.42 1358.7C2901.82 1364.1 2887.72 1366.8 2871.12 1366.8H2829.42V1330.5H2871.12C2882.52 1330.5 2891.52 1327.9 2898.12 1322.7C2904.72 1317.5 2908.02 1309.9 2908.02 1299.9C2908.02 1289.7 2904.72 1282.1 2898.12 1277.1C2891.52 1271.9 2882.52 1269.3 2871.12 1269.3H2829.42ZM3111.53 1233H3160.43L3088.13 1356V1443H3044.63V1356.3L2972.33 1233H3021.23L3066.23 1317.6L3111.53 1233Z" fill="#C7A161"/>
<defs>
<linearGradient id="paint0_linear_157_499" x1="0.470646" y1="595.961" x2="2050.68" y2="595.961" gradientUnits="userSpaceOnUse">
<stop offset="1" stop-color="#C7A161"/>
</linearGradient>
<linearGradient id="paint1_linear_157_499" x1="1787.41" y1="774.053" x2="2431.71" y2="774.053" gradientUnits="userSpaceOnUse">
<stop offset="1" stop-color="#C7A161"/>
</linearGradient>
<linearGradient id="paint2_linear_157_499" x1="2320.59" y1="672.131" x2="2669.39" y2="672.131" gradientUnits="userSpaceOnUse">
<stop offset="1" stop-color="#C7A161"/>
</linearGradient>
<linearGradient id="paint3_linear_157_499" x1="2789.78" y1="144.382" x2="2971.57" y2="144.382" gradientUnits="userSpaceOnUse">
<stop offset="1" stop-color="#C7A161"/>
</linearGradient>
<linearGradient id="paint4_linear_157_499" x1="2809.62" y1="660.343" x2="3151.88" y2="660.343" gradientUnits="userSpaceOnUse">
<stop offset="1" stop-color="#C7A161"/>
</linearGradient>
</defs>
</svg>
