<svg width="3194" height="3388" viewBox="0 0 3194 3388" fill="none" xmlns="http://www.w3.org/2000/svg">
<path d="M3000.15 902.9C2999.63 901.16 2997.87 900.101 2996.07 900.461C2995.46 900.581 2934.84 912.701 2900.42 912.701C2873.59 912.701 2849.17 896.131 2820.89 876.951C2813.59 872.001 2806.04 866.88 2798.23 861.91C2763.14 839.61 2713.47 830.121 2704.68 828.581C2727.69 793.291 2729.48 768.741 2729.53 762.611C2733.37 758.241 2736.9 753.37 2740.14 748.13C2744.74 751.81 2753.66 757.57 2764.58 757.57C2780.89 757.57 2867.2 708.71 2917.54 660.25C2961.73 617.69 2962.12 566.061 2954.83 551.701C2952.29 546.691 2949.06 546.44 2947.39 546.74C2943.79 547.36 2940.35 548.991 2936.71 550.701C2930.54 553.601 2923.56 556.891 2913.2 556.891C2902.84 556.891 2878.33 547.94 2847.32 536.61C2828.57 529.76 2807.33 521.991 2784.22 514.341C2720.89 493.351 2696.81 511.77 2659.7 546.11C2652.74 552.55 2646.68 559.851 2641.67 567.591C2641.35 559.231 2638.21 549.9 2629.94 538.66C2628.12 536.18 2626 533.771 2623.77 531.401C2707.91 443.871 2758.89 333.871 2775.21 204.341C2775.21 204.271 2775.2 204.2 2775.21 204.13C2775.21 203.99 2775.21 203.86 2775.2 203.73C2775.18 203.44 2775.14 203.16 2775.06 202.88C2775.02 202.75 2774.98 202.62 2774.92 202.5C2774.8 202.22 2774.64 201.97 2774.45 201.74C2774.38 201.65 2774.32 201.55 2774.24 201.46C2773.96 201.17 2773.64 200.91 2773.26 200.73C2773.25 200.73 2773.23 200.73 2773.22 200.72C2773.21 200.72 2773.2 200.7 2773.19 200.7C2773.13 200.67 2773.07 200.68 2773.01 200.66C2772.67 200.53 2772.33 200.45 2771.98 200.42C2771.83 200.41 2771.69 200.42 2771.54 200.42C2771.27 200.43 2771.02 200.48 2770.76 200.55C2770.61 200.59 2770.46 200.64 2770.32 200.7C2770.07 200.81 2769.84 200.96 2769.61 201.14C2769.5 201.22 2769.38 201.28 2769.28 201.38C2769.26 201.4 2769.23 201.41 2769.21 201.44C2725.17 246.35 2675.66 286.73 2627.79 325.78C2569.26 373.53 2513.96 418.66 2476.04 466.22C2441.76 464.41 2405.85 472.81 2387.2 485.3C2377.97 491.49 2373 498.39 2372.44 505.81C2371.48 518.43 2379.95 528.811 2389.75 540.831C2395.78 548.231 2402.28 556.261 2407.72 565.901L2372.13 630.05C2349.52 619.73 2324.24 613.85 2297.59 615.85C2291.38 588.02 2277.17 554.14 2222.71 498.11C2162.7 436.36 2095.1 467.81 2094.43 468.13C2092.7 468.96 2091.96 471.04 2092.76 472.79C2092.87 473.03 2103.44 496.751 2092.17 532.151C2081.54 565.591 2081.97 614.321 2093.36 665.851C2100.85 699.721 2133.77 712.051 2150.89 716.241C2141.87 721.221 2128.19 729.82 2118.35 740.75C2102.33 758.54 2087.35 823.98 2087.35 846.14C2087.35 868.3 2128.2 936.671 2141.41 940.861C2143.3 941.461 2144.99 941.721 2146.52 941.721C2151.66 941.721 2155.07 938.74 2158.88 935.41C2161.64 933 2164.94 930.131 2169.82 927.231C2175.46 927.311 2210.26 928.821 2278.56 947.991C2289.08 950.951 2299.39 953.9 2309.55 956.81C2371.91 974.69 2430.81 991.57 2499.27 996.15C2536.69 998.65 2579.28 1000.19 2620.36 1000.19C2673.93 1000.19 2724.94 997.57 2758.6 991.05C2820.19 979.12 2990.89 910.161 2998.12 907.231C2999.81 906.551 3000.7 904.691 3000.18 902.951L3000.15 902.9ZM2176.04 738.861L2222.49 693.231L2184.22 746.621C2181.14 744.231 2178.39 741.661 2176.04 738.861ZM2164.52 704.981C2164.52 679.351 2181.73 655.81 2191.99 644.05C2203.27 631.13 2215.72 622.41 2227.38 616.92L2244.98 661.241L2171.9 733.03C2167.01 725.05 2164.52 715.711 2164.52 704.961V704.981ZM2291.9 621.6C2291.94 621.66 2292.01 621.67 2292.05 621.72C2292.23 621.95 2292.41 622.19 2292.64 622.37C2304.9 631.75 2334.44 657.75 2341.01 677.14L2252.37 659.18L2247.48 610.28C2251.22 609.58 2254.68 609.25 2257.76 609.25C2282.65 609.25 2291.54 621.111 2291.9 621.591V621.6ZM2341.74 693.611L2290.51 674.111L2342.36 684.611C2342.34 688.021 2342.13 690.971 2341.74 693.601V693.611ZM2240.56 611.951L2243.11 637.43L2233.88 614.19C2236.16 613.32 2238.39 612.571 2240.56 611.951ZM2191.98 747.91C2196.95 752.78 2203.56 756.69 2210.99 759.78C2202.96 757.34 2195.98 754.28 2190.03 750.63L2191.98 747.91ZM2196.13 742.111L2250.4 666.39L2340.08 700.52C2337.84 706.93 2334.04 711.36 2329.03 717.15C2325.89 720.77 2322.34 724.881 2318.49 730.231C2308.27 744.441 2296.52 759.37 2282.86 764.9C2275.82 764.81 2216.38 763.551 2196.13 742.121V742.111ZM2275.26 805.611C2284.54 796.061 2289.92 789.7 2292.64 786.25C2294.46 787.7 2296.53 789.1 2298.87 790.39C2295.71 795.6 2288.08 806.91 2274.33 820.51C2274.74 815.36 2275.05 810.341 2275.26 805.621V805.611ZM2275.6 795.03C2275.8 785.63 2275.67 778.13 2275.56 774.01C2277.63 773.79 2279.63 773.35 2281.61 772.78C2282.71 775.02 2284.57 778.12 2287.48 781.39C2285.58 783.83 2281.87 788.32 2275.6 795.04V795.03ZM2273.34 830.93C2273.64 830.78 2273.95 830.63 2274.21 830.39C2292.56 813.38 2301.91 799.17 2305.35 793.31C2311.3 795.51 2318.53 796.961 2327.41 796.961C2347.47 796.961 2378.01 790.04 2404.95 783.94C2427.05 778.93 2447.93 774.201 2458.88 774.201C2462.58 774.201 2465.74 774.4 2468.54 774.64C2426.81 792.37 2363.6 813.701 2272.07 840.961C2272.55 837.611 2272.97 834.26 2273.33 830.93H2273.34ZM2270.21 852.211C2270.43 851.051 2270.63 849.871 2270.84 848.701C2374.83 817.791 2442.92 794.401 2484.81 775.201C2485.76 774.871 2486.62 774.38 2487.42 773.67C2488.65 772.57 2489.47 771.14 2490.03 769.28C2503.63 749.54 2519.92 729.86 2538.57 710.67C2543.4 711.7 2550.06 712.551 2553.53 712.961C2553.59 713.141 2553.67 713.301 2553.73 713.481C2536.27 720.631 2522.8 735.671 2513.23 753.621C2490.38 789.201 2454.09 800.91 2400.94 818.02C2390.91 821.25 2380.28 824.681 2369.03 828.491C2312.39 847.671 2280.84 855.46 2268.73 858.14C2269.29 856.21 2269.83 854.261 2270.22 852.211H2270.21ZM2456.83 665.14L2438.5 678.961C2431.19 670.961 2422.83 663.06 2413.56 655.68L2433.75 634.711C2439.3 644.981 2446.66 655.24 2456.83 665.14ZM2462.07 670.01C2477.94 683.95 2499.92 697.05 2531.03 708.28C2516.1 723.85 2502.71 739.741 2490.99 755.721C2490.15 745.481 2479.28 731.18 2460.12 706.04C2457.02 701.97 2453.71 697.64 2450.23 693.02C2448.04 690.12 2445.67 687.19 2443.18 684.27L2462.07 670.02V670.01ZM2669.69 784.211C2643.41 784.211 2637.63 780.12 2636.53 777.68C2636.15 776.85 2636.16 775.83 2636.45 774.67C2637.72 774.57 2638.96 774.41 2640.18 774.16C2650.84 772.05 2659.59 764.301 2666.95 750.471C2678.65 728.481 2689.79 703.631 2695.72 689.971C2699.37 691.951 2703.2 693.93 2707.49 695.89C2721.66 702.35 2731.48 703.1 2738.41 698.26C2747.74 691.74 2749.49 676.091 2748.4 654.341C2754.63 674.321 2753.72 696.311 2745.57 720.121C2732.04 759.651 2702.96 784.211 2669.7 784.211H2669.69ZM2640.83 766.741C2643.55 763.031 2647.1 758.97 2650.46 755.14C2653.21 752 2656.03 748.78 2658.66 745.52C2661.76 741.67 2664.96 737.321 2668.13 732.741C2665.72 737.591 2663.23 742.44 2660.72 747.16C2654.93 758.04 2648.41 764.461 2640.83 766.741ZM2698.51 683.471C2698.78 682.831 2699.03 682.24 2699.24 681.75C2720.44 681.42 2734.05 677.42 2741.55 669.42C2741.17 680.18 2739.32 689.021 2734.37 692.481C2729.81 695.661 2721.75 694.651 2710.41 689.471C2706.06 687.491 2702.18 685.481 2698.51 683.461V683.471ZM2740.77 645.76C2740.93 647.87 2741.08 649.991 2741.2 652.111C2741.07 656.311 2740.04 659.87 2737.99 662.77C2732.4 670.72 2718.99 674.641 2697.06 674.721C2696.92 674.721 2696.8 674.721 2696.68 674.721C2695.41 674.701 2694.13 674.71 2692.81 674.69C2689.67 674.64 2686.66 674.511 2683.74 674.341C2675.89 668.841 2669.46 663.32 2663.17 657.9C2657.28 652.81 2651.19 647.55 2644.08 642.47C2637.7 637.91 2633.82 629.57 2633.15 619C2632.46 607.94 2635.15 595.821 2640.53 584.091C2651.1 583.401 2662.49 584.571 2674.29 587.771C2694.26 593.191 2712.82 603.67 2724.91 615.57C2727.5 618.3 2729.92 621.1 2732.15 623.94C2734.38 627.05 2736.12 630.2 2737.31 633.32C2739.04 637.91 2740.16 642.03 2740.75 645.76H2740.77ZM2626.13 619.44C2626.93 632.17 2631.85 642.391 2639.99 648.201C2646.84 653.101 2652.54 658.021 2658.58 663.231C2662.3 666.451 2666.11 669.691 2670.17 672.951C2638.84 668.311 2624.03 654.37 2624.03 629.93C2624.03 624.6 2624.81 619.79 2626.02 615.3C2626.02 616.69 2626.04 618.07 2626.12 619.43L2626.13 619.44ZM2681.34 681.241C2683.63 682.801 2686.06 684.37 2688.63 685.92C2680.96 699.57 2666.05 725.101 2653.16 741.101C2650.6 744.281 2647.83 747.44 2645.15 750.5C2639.77 756.65 2634.78 762.351 2631.85 767.621C2618.93 766.641 2601.84 757.1 2578.94 738.19C2564.39 726.18 2556.76 709.01 2556.86 688.55C2557.02 656.87 2576 619.48 2603.02 597.63C2610.73 591.4 2620.21 587.24 2630.86 585.23C2629.73 587.96 2628.43 590.721 2627.08 593.591C2622.35 603.631 2616.99 615.001 2616.99 629.951C2616.99 661.301 2638.09 678.14 2681.35 681.25L2681.34 681.241ZM2265.95 865.93C2273.71 864.4 2305.34 857.48 2371.27 835.16C2382.48 831.36 2393.08 827.951 2403.08 824.731C2446.99 810.591 2479.72 800.04 2503.38 776.93C2497.71 794.31 2495.11 812.31 2495.56 827.39C2413.82 850.66 2331.04 871.411 2249.21 889.211C2256.18 882.751 2262 875.07 2265.95 865.94V865.93ZM2235.95 899.31C2322.19 880.9 2409.63 859.131 2495.92 834.611C2496.71 848.031 2497.74 862.631 2498.75 876.851C2498.87 878.551 2498.99 880.22 2499.11 881.91C2427.56 879.33 2325.14 891.92 2222.02 907.03C2226.8 904.75 2231.48 902.19 2235.96 899.31H2235.95ZM2505.78 876.351C2504.67 860.611 2503.51 844.341 2502.7 829.831C2501.47 808.041 2507.65 777.83 2521.16 754.03C2521.21 753.95 2521.26 753.86 2521.31 753.78C2529.97 738.61 2541.63 726.09 2556.26 720.05C2560.4 729.1 2566.48 737.05 2574.44 743.63C2597.6 762.76 2615.09 772.671 2629.3 774.471C2628.98 776.601 2629.2 778.641 2630.09 780.611C2633.48 788.091 2645.32 791.28 2669.67 791.28C2688.96 791.28 2706.87 783.8 2721.65 770.51C2719.47 783.99 2711.46 811.751 2682.22 847.121C2639.34 898.981 2622.6 908.921 2597.04 917.961C2573.02 926.461 2569.83 929.581 2554.51 944.591C2552.27 946.791 2549.75 949.25 2546.86 952.03C2536.39 962.12 2526.08 966.481 2519.28 963.701C2513.41 961.301 2510 953.64 2509.68 942.14C2509.18 924.48 2507.52 901.111 2505.77 876.361L2505.78 876.351ZM2664.47 551.26C2700.65 517.78 2722.31 501.23 2781.98 521.01C2804.99 528.63 2826.18 536.381 2844.88 543.211C2877.78 555.241 2901.56 563.92 2913.18 563.92C2924.8 563.92 2933.19 560.11 2939.69 557.06C2942.75 555.62 2945.42 554.36 2947.88 553.8C2948.87 555.03 2950.64 559.36 2951.18 567.31C2952.72 590.34 2943.41 625.51 2912.63 655.15C2861.76 704.13 2777.92 750.5 2764.56 750.5C2755.11 750.5 2747.15 744.82 2743.7 741.91C2746.95 735.86 2749.83 729.38 2752.22 722.41C2765.6 683.33 2760.71 648.79 2737.71 619.55C2725.77 603.05 2702.38 588.071 2676.16 580.961C2668.09 578.771 2656.69 576.58 2644.32 576.75C2649.52 567.54 2656.34 558.78 2664.47 551.25V551.26ZM2563.26 492.18C2576.81 466.78 2590.39 452.68 2635.91 405.54C2642.77 398.44 2650.36 390.58 2658.78 381.82C2708.08 330.53 2747.37 259.87 2764.93 225.6C2746 343.94 2696.92 445.051 2618.75 526.401C2604.45 513.231 2584.41 501.77 2563.26 492.18ZM2632.21 331.19C2674.95 296.33 2718.94 260.36 2759.35 221.03C2742.36 254.37 2703.08 325.56 2653.69 376.93C2645.28 385.68 2637.7 393.54 2630.84 400.64C2584.5 448.64 2570.87 462.791 2556.8 489.331C2541.41 482.681 2525.72 476.99 2511.49 472.35C2503.03 469.59 2493.9 467.83 2484.55 466.85C2521.91 421.22 2575.52 377.44 2632.21 331.19ZM2379.43 506.29C2379.92 499.87 2386.04 494.49 2391.09 491.11C2415.06 475.05 2470.72 466.47 2509.31 479.05C2567.88 498.13 2607.62 520.17 2624.25 542.79C2634.86 557.22 2636.04 567.61 2633.5 577.51C2621.65 579.12 2609.43 583.35 2598.58 592.13C2570.03 615.22 2549.98 654.85 2549.81 688.5C2549.78 694.47 2550.39 700.171 2551.54 705.601C2547.48 705.081 2541.88 704.28 2538.41 703.4C2478.02 682.66 2451.83 654.92 2438.05 627.47C2437.98 627.25 2437.87 627.051 2437.75 626.841C2430.79 612.791 2427.03 598.83 2423.56 585.93C2421.47 578.15 2418.54 571.25 2415.22 564.99C2415.09 564.37 2414.79 563.811 2414.35 563.331C2408.43 552.611 2401.35 543.901 2395.18 536.341C2385.97 525.041 2378.69 516.12 2379.44 506.31L2379.43 506.29ZM2411.56 573.38C2413.58 577.81 2415.35 582.57 2416.74 587.74C2420.16 600.46 2423.86 614.181 2430.38 628.021L2407.93 651.341C2398.83 644.571 2388.96 638.35 2378.45 633.06L2411.56 573.38ZM2405.79 658.5C2405.79 658.5 2405.82 658.561 2405.85 658.581C2405.93 658.661 2406.04 658.69 2406.14 658.76C2421.65 670.67 2434.74 684.21 2444.59 697.25C2448.08 701.87 2451.39 706.22 2454.5 710.29C2472.27 733.61 2484.02 749.011 2484.02 756.961C2484.02 761.251 2483.84 764.36 2483.5 766.27C2482.96 767.06 2482.39 767.86 2481.86 768.65C2480.42 768.83 2477.6 768.501 2475.02 768.201C2471.1 767.751 2465.72 767.121 2458.88 767.121C2447.14 767.121 2426.86 771.71 2403.39 777.03C2376.81 783.05 2346.68 789.88 2327.41 789.88C2301.34 789.88 2291.37 776.26 2288.21 770.19C2302.33 763.3 2314.02 748.47 2324.22 734.3C2327.88 729.21 2331.33 725.221 2334.37 721.711C2343.11 711.611 2349.42 704.311 2349.42 684.201C2349.42 683.191 2349.33 682.151 2349.19 681.111C2349.18 681.031 2349.17 680.941 2349.15 680.861C2346.24 660.121 2317.72 633.95 2304.07 622.5C2342.71 621.35 2378.12 637.291 2405.81 658.471L2405.79 658.5ZM2100.2 664.27C2089.07 613.92 2088.57 566.53 2098.84 534.24C2108.58 503.63 2103.19 481.35 2100.41 473.17C2113.67 467.96 2167.54 451.47 2217.61 502.98C2266.06 552.82 2281.87 584.451 2288.84 609.951C2282.54 606.091 2272.55 602.201 2257.74 602.201C2239.08 602.201 2210.6 611.97 2186.66 639.41C2175.75 651.91 2157.45 677.041 2157.45 704.971C2157.45 706.781 2157.52 708.621 2157.67 710.471C2144.93 708.121 2107.74 698.41 2100.2 664.28V664.27ZM2154.19 930.04C2149.25 934.36 2147.78 935.441 2143.49 934.081C2134.18 931.131 2094.35 867.181 2094.35 846.091C2094.35 825.001 2109.01 761.57 2123.55 745.42C2134.6 733.14 2151.45 723.721 2159.08 719.831C2160.73 727.041 2163.78 734.22 2168.83 740.88C2168.85 740.9 2168.85 740.931 2168.87 740.951C2168.87 740.951 2168.89 740.951 2168.89 740.971C2172.47 745.671 2177.06 750.11 2182.85 754.13C2182.92 754.19 2182.95 754.27 2183.03 754.32C2183.18 754.42 2183.34 754.47 2183.5 754.55C2200.26 765.91 2226.97 773.75 2268.5 774.16C2268.8 784.78 2269.23 819.77 2263.26 850.88C2256.06 888.44 2216.26 904 2186.95 912.44C2178.59 914.85 2172.37 917.63 2167.46 920.41C2167.38 920.44 2167.32 920.49 2167.24 920.53C2161.22 923.96 2157.24 927.38 2154.19 930.05V930.04ZM2757.21 984.07C2698.35 995.47 2585.46 994.79 2499.69 989.06C2431.97 984.53 2373.42 967.751 2311.44 949.981C2301.27 947.061 2290.95 944.11 2280.41 941.15C2231.67 927.46 2200.06 922.67 2183.31 921C2185.06 920.39 2186.9 919.791 2188.9 919.211C2191.11 918.571 2193.38 917.89 2195.69 917.17C2196.23 917.51 2196.84 917.741 2197.51 917.741C2197.68 917.741 2197.86 917.731 2198.03 917.701C2309.41 901.021 2422.81 886.041 2499.59 888.971C2501 909.061 2502.22 927.721 2502.63 942.331C2503.04 956.801 2508 966.701 2516.62 970.221C2518.89 971.151 2521.31 971.611 2523.85 971.611C2532.21 971.611 2541.85 966.641 2551.76 957.101C2554.67 954.301 2557.19 951.821 2559.45 949.611C2574.53 934.841 2576.84 932.571 2599.4 924.591C2626.21 915.101 2643.66 904.811 2687.66 851.591C2692.54 845.681 2696.83 840 2700.64 834.53C2701.1 834.9 2701.62 835.19 2702.24 835.3C2702.79 835.39 2757.89 844.611 2794.45 867.851C2802.17 872.751 2809.67 877.85 2816.93 882.77C2844.96 901.78 2871.43 919.741 2900.42 919.741C2918.6 919.741 2943.3 916.56 2963.24 913.42C2909.28 934.57 2802.12 975.381 2757.22 984.081L2757.21 984.07Z" fill="url(#paint0_linear_157_498)"/>
<path d="M2868.58 921.881C2867.33 922.001 2742.25 933.141 2646.17 900.121C2644.33 899.481 2642.32 900.471 2641.69 902.311C2641.06 904.151 2642.04 906.151 2643.88 906.791C2701.98 926.761 2770.37 930.821 2816.45 930.821C2847.73 930.821 2868.72 928.951 2869.24 928.901C2871.18 928.721 2872.61 927.001 2872.42 925.061C2872.23 923.121 2870.56 921.661 2868.58 921.881Z" fill="url(#paint1_linear_157_498)"/>
<path d="M3193.4 1010.97C3192.77 1007.37 3189.98 1004.53 3186.39 1003.83C3183.78 1003.33 3142.31 996.051 3092.8 1028.33C3135.1 970.821 3169.81 935.551 3170.3 935.051C3172.72 932.611 3173.5 928.981 3172.3 925.751C3171.09 922.531 3168.12 920.301 3164.69 920.051C3162.72 919.901 3135.99 918.321 3102.91 932.661C3090.85 928.851 3055.08 922.651 3008.55 960.181C2994.74 958.281 2954.56 959.131 2907.19 1018.34C2846.95 1093.64 2767.19 1180.08 2684.44 1180.08C2649 1180.08 2621.46 1178.2 2597.17 1176.53C2577.94 1175.22 2561.34 1174.08 2544.43 1174.08C2394.05 1174.08 2215.97 1190.05 2168.94 1313.38C2157.7 1320.39 2146.67 1328.27 2135.89 1336.96C2135.84 1337 2135.79 1337.04 2135.74 1337.09C2028.48 1423.72 1946.38 1589.17 1938.92 1741.98C1938.68 1746.84 1942.43 1750.97 1947.29 1751.21C1952.08 1751.29 1956.28 1747.7 1956.52 1742.84C1960.41 1663.17 1986.39 1578.32 2025.86 1504.14C2049.54 1529.62 2119.61 1597.66 2226.57 1639.11C2224.88 1654.16 2223.92 1670.2 2223.92 1687.33C2223.92 1850.18 2303.23 1937.7 2306.6 1941.34C2308.34 1943.22 2310.7 1944.16 2313.06 1944.16C2315.2 1944.16 2317.34 1943.39 2319.04 1941.82C2322.61 1938.52 2322.83 1932.95 2319.54 1929.37C2318.76 1928.52 2241.54 1842.88 2241.54 1687.32C2241.54 1547.22 2308.93 1481.03 2322.07 1469.47C2327.5 1469.66 2332.91 1469.81 2338.28 1469.81C2383.87 1469.81 2428.1 1463.2 2491.01 1453.79C2530.03 1447.95 2574.26 1441.34 2631.23 1434.28C2778.53 1416.05 2941.59 1378.99 3034.15 1242.35C3066.47 1194.63 3087.86 1156.15 3105.04 1125.23C3133.57 1073.89 3150.8 1042.9 3189.22 1020.05C3192.37 1018.18 3194.03 1014.56 3193.39 1010.96L3193.4 1010.97ZM3022.34 1102.57C3022.28 1102.67 3022.25 1102.78 3022.2 1102.88C3019 1107.88 3015.81 1113.04 3012.66 1118.55C2951.14 1226.2 2879.8 1296.14 2795.35 1331.4C2802.07 1326.34 2808.41 1320.94 2814.19 1315.09C2848.67 1280.16 2871.9 1252.02 2892.39 1227.2C2922.57 1190.65 2944.38 1164.25 2982.92 1141.19C2985.87 1139.43 2987.52 1136.11 2987.16 1132.69C2986.8 1129.27 2984.48 1126.38 2981.22 1125.28C2980.59 1125.07 2974.43 1123.1 2962.19 1122.78C2965.82 1118.32 2970.26 1112.68 2975.52 1105.67C2983.6 1118.12 2997.12 1123.59 2997.92 1123.9C2998.97 1124.31 3000.05 1124.5 3001.1 1124.5C3004.61 1124.5 3007.92 1122.38 3009.28 1118.92C3011.07 1114.41 3008.85 1109.3 3004.35 1107.49C3004.2 1107.43 2989.88 1101.52 2987.52 1089.2C3000.31 1071.21 3016.31 1047.34 3035.41 1016.27C3057.1 980.991 3082.97 961.471 3105.77 950.691C3106.65 950.451 3107.48 950.081 3108.24 949.581C3121.19 943.751 3133.07 940.671 3142.44 939.121C3117.98 966.331 3068.21 1025.38 3022.34 1102.55V1102.57ZM3020.39 1007.06C2967.22 1093.55 2938.06 1123.8 2937.78 1124.08C2937.75 1124.11 2937.73 1124.14 2937.71 1124.17C2922.56 1126.08 2903.27 1130.22 2879.51 1138.39C2894.51 1120.42 2908.84 1102.36 2923.48 1083.9C2927.91 1078.32 2932.37 1072.69 2936.88 1067.03C2942.78 1075.81 2952.1 1082.74 2954.6 1084.51C2956.14 1085.61 2957.92 1086.13 2959.68 1086.13C2962.44 1086.13 2965.17 1084.83 2966.88 1082.41C2969.69 1078.44 2968.75 1072.94 2964.78 1070.13C2957.88 1065.25 2949.71 1056.73 2949.51 1053.07C2949.48 1052.55 2949.39 1052.06 2949.28 1051.57C2962.95 1034.63 2977.23 1017.41 2992.65 999.961C3000.88 990.651 3008.78 982.981 3016.31 976.591C3016.36 976.551 3016.41 976.501 3016.47 976.461C3040.82 955.861 3061.26 949.121 3075.79 947.651C3056.8 960.571 3037.37 979.431 3020.38 1007.07L3020.39 1007.06ZM2272.99 1486.22C2274.96 1487.86 2276.24 1490.3 2276.24 1493.06C2276.24 1498 2272.23 1502.01 2267.29 1502.01C2262.35 1502.01 2258.34 1498 2258.34 1493.06C2258.34 1488.12 2262.35 1484.11 2267.29 1484.11C2268.49 1484.11 2269.64 1484.36 2270.69 1484.79C2271.46 1485.27 2272.22 1485.74 2272.99 1486.22ZM2072.18 1462.24C2072.18 1455.96 2077.29 1450.85 2083.57 1450.85C2089.85 1450.85 2094.96 1455.96 2094.96 1462.24C2094.96 1468.52 2089.85 1473.63 2083.57 1473.63C2077.29 1473.63 2072.18 1468.52 2072.18 1462.24ZM2077.35 1433.91C2073.03 1434.86 2069.08 1436.78 2065.71 1439.42C2068.07 1436.1 2070.44 1432.78 2072.85 1429.54C2074.2 1430.86 2075.67 1432.29 2077.34 1433.91H2077.35ZM2055.02 1467.25C2053.24 1465.22 2051.74 1463.45 2050.52 1461.99C2052.28 1459.24 2054.03 1456.48 2055.83 1453.78C2055.01 1456.46 2054.56 1459.3 2054.56 1462.25C2054.56 1463.96 2054.74 1465.63 2055.02 1467.26V1467.25ZM2083.57 1491.25C2098.23 1491.25 2110.35 1480.32 2112.28 1466.19C2115.25 1468.82 2118.34 1471.51 2121.5 1474.25C2108.35 1477.01 2098.45 1488.69 2098.45 1502.64C2098.45 1505.58 2098.9 1508.42 2099.72 1511.1C2091.21 1503.8 2083.69 1496.86 2077.18 1490.53C2079.24 1490.99 2081.37 1491.26 2083.56 1491.26L2083.57 1491.25ZM2116.08 1502.64C2116.08 1496.36 2121.19 1491.25 2127.47 1491.25C2133.75 1491.25 2138.86 1496.36 2138.86 1502.64C2138.86 1508.92 2133.75 1514.03 2127.47 1514.03C2121.19 1514.03 2116.08 1508.92 2116.08 1502.64ZM2127.47 1531.66C2143.33 1531.66 2156.25 1518.86 2156.47 1503.04C2160.35 1506.07 2164.28 1509.09 2168.26 1512.07C2156.36 1515.69 2147.68 1526.76 2147.68 1539.83C2147.68 1542.78 2148.13 1545.63 2148.95 1548.31C2140.53 1542.72 2132.59 1537.1 2125.18 1531.54C2125.94 1531.6 2126.7 1531.66 2127.47 1531.66ZM2165.3 1539.84C2165.3 1533.56 2170.41 1528.45 2176.69 1528.45C2182.97 1528.45 2188.08 1533.56 2188.08 1539.84C2188.08 1546.12 2182.97 1551.23 2176.69 1551.23C2170.41 1551.23 2165.3 1546.12 2165.3 1539.84ZM2205.7 1539.84C2205.7 1539.23 2205.65 1538.64 2205.61 1538.04C2209.37 1540.42 2213.13 1542.7 2216.89 1544.91C2206.26 1549.22 2198.73 1559.64 2198.73 1571.79C2198.73 1573.79 2198.93 1575.75 2199.32 1577.63C2193.33 1574.61 2187.53 1571.5 2181.88 1568.35C2195.41 1565.89 2205.7 1554.05 2205.7 1539.83V1539.84ZM2227.74 1560.41C2234.02 1560.41 2239.13 1565.52 2239.13 1571.8C2239.13 1578.08 2234.02 1583.19 2227.74 1583.19C2221.46 1583.19 2216.35 1578.08 2216.35 1571.8C2216.35 1565.52 2221.46 1560.41 2227.74 1560.41ZM2250.94 1543.07C2185.19 1512.47 2105.47 1436.8 2083.72 1415.49C2090.88 1406.52 2098.26 1397.94 2105.81 1389.76C2120.65 1412.62 2170.59 1481 2260.16 1523.32C2257.01 1529.46 2253.92 1536.05 2250.95 1543.07H2250.94ZM2124.37 1374.66C2124.37 1369.73 2128.38 1365.71 2133.32 1365.71C2138.26 1365.71 2142.27 1369.72 2142.27 1374.66C2142.27 1379.6 2138.26 1383.61 2133.32 1383.61C2128.38 1383.61 2124.37 1379.6 2124.37 1374.66ZM2178.45 1422.04C2178.45 1426.97 2174.44 1430.99 2169.5 1430.99C2164.56 1430.99 2160.55 1426.98 2160.55 1422.04C2160.55 1417.1 2164.56 1413.09 2169.5 1413.09C2174.44 1413.09 2178.45 1417.1 2178.45 1422.04ZM2217.18 1453.3C2222.11 1453.3 2226.13 1457.31 2226.13 1462.25C2226.13 1467.19 2222.12 1471.2 2217.18 1471.2C2212.24 1471.2 2208.23 1467.19 2208.23 1462.25C2208.23 1457.31 2212.24 1453.3 2217.18 1453.3ZM2240.71 1493.06C2240.71 1493.06 2240.71 1493.1 2240.71 1493.12C2236.73 1490.78 2232.83 1488.41 2229.04 1485.99C2236.42 1482.29 2241.84 1475.26 2243.32 1466.88C2245.81 1468.61 2248.41 1470.36 2251 1472.11C2244.75 1476.98 2240.7 1484.55 2240.7 1493.07L2240.71 1493.06ZM2190.99 1457.98C2186.63 1454.32 2182.47 1450.66 2178.49 1447.02C2186.63 1444.09 2192.92 1437.3 2195.16 1428.86C2198.55 1431.93 2202.12 1435.05 2205.88 1438.23C2198.11 1441.9 2192.41 1449.22 2190.99 1457.98ZM2144.87 1412.14C2141.57 1408.26 2138.55 1404.56 2135.84 1401.1C2144.73 1400.26 2152.35 1395.03 2156.51 1387.6C2158.62 1390.35 2160.95 1393.23 2163.43 1396.2C2154.97 1398.19 2148.06 1404.22 2144.87 1412.14ZM2034.87 1487.84C2036.79 1484.47 2038.73 1481.12 2040.71 1477.8C2062.54 1503.25 2126.53 1569.58 2230.73 1611.06C2230.11 1614.36 2229.53 1617.71 2228.99 1621.12C2121.83 1578.5 2052.18 1506.95 2034.88 1487.84H2034.87ZM2290.88 1476.44C2288.24 1474.87 2285.63 1473.3 2283.09 1471.74C2281.88 1470.84 2280.6 1470.04 2279.25 1469.36C2187.57 1412.23 2159.14 1362.73 2151.93 1346.84C2158.43 1341.75 2165.01 1336.96 2171.66 1332.54C2197.51 1396.74 2241.3 1440.89 2302.06 1464.07C2298.8 1467.37 2295 1471.5 2290.88 1476.44ZM3089.64 1116.69C3072.63 1147.31 3051.45 1185.42 3019.56 1232.49C2931.19 1362.95 2779.65 1398.18 2629.07 1416.81C2571.88 1423.89 2525.6 1430.81 2488.41 1436.38C2418.07 1446.9 2371.39 1453.84 2320.55 1451.85C2255.21 1430.95 2211.02 1387.56 2185.52 1319.37C2228.97 1206.37 2399.88 1191.73 2544.43 1191.73C2560.74 1191.73 2577.06 1192.85 2595.96 1194.14C2620.54 1195.82 2648.4 1197.73 2684.44 1197.73C2720.48 1197.73 2753.36 1184.19 2785.48 1163.09L2786.4 1174.33C2786.77 1178.94 2790.63 1182.43 2795.17 1182.43C2795.41 1182.43 2795.65 1182.43 2795.9 1182.4C2800.75 1182 2804.36 1177.75 2803.96 1172.9L2802.2 1151.33C2828.9 1131.32 2854.19 1106.6 2877.55 1080.74L2880.95 1087.29C2882.52 1090.31 2885.59 1092.04 2888.78 1092.04C2890.15 1092.04 2891.54 1091.72 2892.83 1091.04C2897.15 1088.8 2898.83 1083.48 2896.59 1079.16L2890.06 1066.59C2900.83 1054.16 2911.14 1041.62 2920.94 1029.37C2948.28 995.191 2972.09 983.121 2987.92 979.161C2985.12 982.051 2982.31 985.051 2979.46 988.271C2953.79 1017.31 2931.36 1045.59 2909.68 1072.94C2873.57 1118.48 2839.46 1161.5 2792.27 1206.66C2720.27 1275.56 2676.08 1278.02 2604.28 1257.45C2600.04 1256.24 2595.49 1254.89 2590.66 1253.47C2511.79 1230.19 2364.97 1186.85 2246.73 1295.81C2243.15 1299.11 2242.92 1304.68 2246.22 1308.26C2247.96 1310.14 2250.33 1311.1 2252.7 1311.1C2254.83 1311.1 2256.97 1310.33 2258.67 1308.77C2369.56 1206.59 2510.14 1248.08 2585.67 1270.37C2590.55 1271.81 2595.15 1273.17 2599.43 1274.39C2631.43 1283.56 2659.3 1288.33 2686.69 1285.15C2681.53 1298.72 2683.18 1309.07 2683.28 1309.63C2684.02 1313.9 2687.73 1316.88 2691.92 1316.88C2692.39 1316.88 2692.87 1316.84 2693.34 1316.77C2698.1 1316.01 2701.36 1311.5 2700.66 1306.73C2700.59 1306.28 2699.12 1295.43 2707.91 1282.24C2708.21 1281.79 2708.45 1281.31 2708.66 1280.83C2725.19 1276.18 2741.92 1268.25 2759.63 1256.28C2766.25 1273.9 2778.91 1283.85 2779.54 1284.34C2781.15 1285.57 2783.03 1286.17 2784.91 1286.17C2787.55 1286.17 2790.16 1284.99 2791.9 1282.73C2794.87 1278.87 2794.15 1273.34 2790.29 1270.37C2790.17 1270.28 2778.6 1261 2774.62 1245.37C2784.2 1237.91 2794.1 1229.32 2804.45 1219.41C2823.13 1201.53 2839.75 1184.03 2855.24 1166.62C2855.43 1166.55 2855.62 1166.52 2855.81 1166.44C2901.26 1147.05 2932.83 1141.56 2952.1 1140.56C2923.75 1161.56 2904.11 1185.33 2878.8 1215.99C2858.54 1240.53 2835.57 1268.34 2801.64 1302.72C2721.54 1383.88 2523.18 1381.39 2521.19 1381.36C2516.35 1381.33 2512.31 1385.15 2512.22 1390.02C2512.14 1394.89 2516.01 1398.9 2520.88 1398.99C2521.5 1399 2523.17 1399.03 2525.76 1399.03C2551.86 1399.03 2671.43 1396.55 2758.38 1353.87C2759.86 1358.44 2764.74 1361 2769.34 1359.58C2819.75 1344.1 2865.78 1317.91 2908.02 1280.53C2910.75 1293.34 2917.67 1298.99 2918.76 1299.81C2920.37 1301.02 2922.28 1301.61 2924.18 1301.61C2926.86 1301.61 2929.51 1300.43 2931.22 1298.15C2934.14 1294.26 2933.47 1288.83 2929.58 1285.91C2929.31 1285.67 2923.33 1280.21 2924.76 1264.96C2952.98 1237.33 2979.45 1204.41 3004.36 1166.06C3006.13 1173.84 3009.21 1181.87 3014.57 1188.25C3016.31 1190.33 3018.81 1191.4 3021.32 1191.4C3023.32 1191.4 3025.33 1190.72 3026.98 1189.33C3030.71 1186.2 3031.19 1180.64 3028.06 1176.92C3020.13 1167.48 3019.37 1149.46 3019.81 1141.26C3022.55 1136.68 3025.27 1132.05 3027.97 1127.33C3073.98 1046.81 3126.25 1026.23 3156.88 1021.62C3129.52 1044.99 3112.7 1075.26 3089.65 1116.73L3089.64 1116.69Z" fill="url(#paint2_linear_157_498)"/>
<path d="M1464.15 1313.21C1464.15 1313.21 1464.09 1313.16 1464.06 1313.14C1452.61 1303.9 1440.89 1295.54 1428.96 1288.1C1379.37 1157.7 1190.99 1140.82 1031.92 1140.82C1014.04 1140.82 996.472 1142.02 976.132 1143.41C950.402 1145.17 921.251 1147.16 883.721 1147.16C795.911 1147.16 711.382 1055.57 647.542 975.771C597.272 912.931 554.772 912.391 540.512 914.421C491.092 874.461 453.212 881.301 440.752 885.291C405.782 870.091 377.512 871.761 375.422 871.911C371.992 872.161 369.022 874.391 367.812 877.611C366.602 880.831 367.382 884.461 369.802 886.911C370.332 887.441 408.062 925.781 453.672 988.141C400.362 952.201 355.292 960.041 352.502 960.581C348.912 961.271 346.122 964.111 345.492 967.721C344.862 971.321 346.522 974.941 349.672 976.811C390.452 1001.07 408.712 1033.92 438.952 1088.33C457.142 1121.05 479.772 1161.78 513.982 1212.27C611.842 1356.74 784.312 1395.92 940.102 1415.2C1000.42 1422.67 1047.24 1429.67 1088.55 1435.85C1155.11 1445.81 1201.9 1452.81 1250.11 1452.81C1255.86 1452.81 1261.66 1452.65 1267.48 1452.44C1281.11 1464.28 1353.03 1533.95 1353.03 1683.56C1353.03 1848.44 1271.15 1939.22 1270.33 1940.12C1267.03 1943.69 1267.25 1949.26 1270.82 1952.57C1272.52 1954.14 1274.66 1954.92 1276.81 1954.92C1279.18 1954.92 1281.54 1953.97 1283.28 1952.09C1286.85 1948.24 1370.67 1855.74 1370.67 1683.57C1370.67 1665.31 1369.64 1648.23 1367.82 1632.2C1481.93 1588.08 1556.38 1515.31 1580.93 1488.79C1622.93 1567.53 1650.6 1657.68 1654.73 1742.3C1654.97 1747.16 1659.09 1750.8 1663.96 1750.67C1668.82 1750.43 1672.57 1746.3 1672.33 1741.44C1664.45 1579.81 1577.6 1404.81 1464.16 1313.21H1464.15ZM1321.43 1468.69C1322.61 1468.2 1323.9 1467.92 1325.26 1467.92C1330.77 1467.92 1335.25 1472.4 1335.25 1477.9C1335.25 1483.4 1330.77 1487.89 1325.26 1487.89C1319.75 1487.89 1315.27 1483.41 1315.27 1477.9C1315.27 1474.8 1316.72 1472.06 1318.95 1470.23C1319.79 1469.71 1320.61 1469.2 1321.43 1468.69ZM1467.05 1342.59C1472.56 1342.59 1477.04 1347.07 1477.04 1352.58C1477.04 1358.09 1472.56 1362.57 1467.05 1362.57C1461.54 1362.57 1457.06 1358.09 1457.06 1352.58C1457.06 1347.07 1461.54 1342.59 1467.05 1342.59ZM1442.59 1365.33C1446.97 1373.69 1455.49 1379.52 1465.42 1380.1C1462.23 1384.19 1458.62 1388.61 1454.65 1393.25C1451.39 1384.36 1443.71 1377.59 1434.27 1375.67C1437.3 1372.08 1440.07 1368.62 1442.58 1365.32L1442.59 1365.33ZM1428.75 1392.75C1434.26 1392.75 1438.74 1397.23 1438.74 1402.74C1438.74 1408.25 1434.26 1412.73 1428.75 1412.73C1423.24 1412.73 1418.76 1408.25 1418.76 1402.74C1418.76 1397.23 1423.24 1392.75 1428.75 1392.75ZM1401.89 1409.01C1404.09 1418.44 1411.12 1426.01 1420.23 1428.98C1415.62 1433.22 1410.75 1437.48 1405.65 1441.75C1404.39 1431.99 1398.04 1423.81 1389.33 1420C1393.76 1416.27 1397.94 1412.61 1401.89 1409.02V1409.01ZM1378.29 1435.3C1383.8 1435.3 1388.28 1439.78 1388.28 1445.29C1388.28 1450.8 1383.8 1455.27 1378.29 1455.27C1372.78 1455.27 1368.3 1450.79 1368.3 1445.29C1368.3 1439.79 1372.78 1435.3 1378.29 1435.3ZM1351 1449.29C1352.37 1458.68 1358.47 1466.53 1366.8 1470.36C1362.28 1473.27 1357.6 1476.11 1352.82 1478.9C1352.83 1478.57 1352.87 1478.24 1352.87 1477.9C1352.87 1468.79 1348.42 1460.73 1341.6 1455.7C1344.8 1453.55 1347.96 1451.41 1351 1449.29ZM1496.11 1367.73C1504.37 1376.66 1512.44 1386.03 1520.26 1395.84C1497.65 1418.03 1412.38 1499.11 1342.29 1531.55C1339.01 1523.75 1335.6 1516.47 1332.11 1509.7C1427.91 1464.6 1480.9 1391.3 1496.11 1367.73ZM1541.82 1424.77C1537.5 1420.12 1531.74 1416.83 1525.25 1415.63C1527.47 1413.49 1529.42 1411.59 1531.13 1409.91C1534.76 1414.77 1538.31 1419.74 1541.82 1424.77ZM1519.73 1432.72C1526.66 1432.72 1532.3 1438.36 1532.3 1445.29C1532.3 1452.22 1526.66 1457.86 1519.73 1457.86C1512.8 1457.86 1507.16 1452.22 1507.16 1445.29C1507.16 1438.36 1512.8 1432.72 1519.73 1432.72ZM1473.26 1500.63C1466.33 1500.63 1460.69 1494.99 1460.69 1488.06C1460.69 1481.13 1466.33 1475.49 1473.26 1475.49C1480.19 1475.49 1485.83 1481.13 1485.83 1488.06C1485.83 1494.99 1480.19 1500.63 1473.26 1500.63ZM1421.16 1539.99C1414.23 1539.99 1408.59 1534.35 1408.59 1527.42C1408.59 1520.49 1414.23 1514.85 1421.16 1514.85C1428.09 1514.85 1433.73 1520.49 1433.73 1527.42C1433.73 1534.35 1428.09 1539.99 1421.16 1539.99ZM1367.12 1573.82C1360.19 1573.82 1354.55 1568.18 1354.55 1561.25C1354.55 1554.32 1360.19 1548.68 1367.12 1548.68C1374.05 1548.68 1379.69 1554.32 1379.69 1561.25C1379.69 1568.18 1374.05 1573.82 1367.12 1573.82ZM1377.42 1532.9C1381.98 1530.23 1386.55 1527.45 1391.12 1524.54C1391.03 1525.49 1390.97 1526.45 1390.97 1527.42C1390.97 1542.74 1402.45 1555.4 1417.25 1557.33C1410.54 1561.09 1403.61 1564.79 1396.44 1568.38C1397 1566.09 1397.33 1563.71 1397.33 1561.24C1397.33 1548.21 1389.02 1537.11 1377.43 1532.89L1377.42 1532.9ZM1428.92 1498.27C1433.72 1494.68 1438.45 1491.06 1443.1 1487.41C1443.1 1487.63 1443.07 1487.84 1443.07 1488.06C1443.07 1504.71 1456.62 1518.25 1473.27 1518.25C1474.71 1518.25 1476.11 1518.11 1477.49 1517.92C1468.82 1524.47 1459.52 1531.11 1449.53 1537.7C1450.7 1534.49 1451.37 1531.04 1451.37 1527.42C1451.37 1513.45 1441.83 1501.7 1428.93 1498.27H1428.92ZM1478.42 1458.33C1482.32 1454.97 1486.09 1451.67 1489.71 1448.46C1491.3 1463.62 1504.16 1475.48 1519.74 1475.48C1522.7 1475.48 1525.55 1475.03 1528.25 1474.24C1520.69 1481.66 1511.74 1489.94 1501.51 1498.65C1502.75 1495.35 1503.46 1491.79 1503.46 1488.06C1503.46 1473.17 1492.62 1460.79 1478.42 1458.33ZM1546.91 1432.19C1549.77 1436.43 1552.59 1440.72 1555.36 1445.06C1553.74 1447.01 1551.64 1449.48 1549.05 1452.4C1549.61 1450.11 1549.93 1447.74 1549.93 1445.28C1549.93 1440.58 1548.82 1436.15 1546.9 1432.19H1546.91ZM557.862 955.621C574.252 974.151 589.412 992.451 603.922 1010.44C603.772 1011.01 603.682 1011.6 603.652 1012.21C603.442 1016.26 594.822 1025.3 587.262 1030.67C583.292 1033.48 582.362 1038.98 585.172 1042.95C586.892 1045.38 589.612 1046.67 592.372 1046.67C594.132 1046.67 595.912 1046.15 597.452 1045.05C600.132 1043.15 610.322 1035.57 616.462 1026.09C621.382 1032.27 626.261 1038.41 631.091 1044.5C646.981 1064.54 662.511 1084.12 678.821 1103.61C652.791 1094.53 631.742 1089.98 615.342 1087.93C615.282 1087.87 615.242 1087.79 615.182 1087.73C614.872 1087.42 583.992 1055.39 527.662 963.761C509.242 933.791 488.092 913.571 467.542 899.911C487.762 901.411 519.612 912.371 557.842 955.631L557.862 955.621ZM435.452 902.201C436.152 902.661 436.912 903.001 437.712 903.251C461.982 914.671 489.562 935.401 512.662 972.981C532.942 1005.96 549.912 1031.28 563.462 1050.33C561.052 1063.7 545.672 1070.11 545.282 1070.27C540.772 1072.05 538.542 1077.14 540.302 1081.67C541.662 1085.15 544.992 1087.29 548.512 1087.29C549.572 1087.29 550.662 1087.1 551.712 1086.69C552.562 1086.36 567.182 1080.45 575.572 1066.97C581.652 1075.09 586.732 1081.53 590.782 1086.48C577.242 1086.73 570.422 1088.89 569.732 1089.12C566.472 1090.22 564.162 1093.12 563.792 1096.53C563.422 1099.94 565.082 1103.26 568.032 1105.03C608.902 1129.48 632.002 1157.46 663.982 1196.19C685.672 1222.46 710.262 1252.23 746.742 1289.19C753.812 1296.35 761.662 1302.89 770.052 1308.94C678.822 1272.12 601.972 1197.49 535.842 1081.76C532.512 1075.93 529.142 1070.48 525.742 1065.18C525.682 1065.07 525.652 1064.96 525.592 1064.86C476.442 982.161 423.062 919.141 397.552 890.861C407.762 892.441 420.962 895.691 435.432 902.211L435.452 902.201ZM1091.16 1418.42C1051.8 1412.53 1002.8 1405.2 942.272 1397.71C782.762 1377.97 622.232 1340.64 528.572 1202.38C494.802 1152.53 472.382 1112.18 454.362 1079.76C429.612 1035.24 411.662 1002.93 381.962 978.091C414.242 982.451 470.862 1003.52 520.562 1090.49C523.442 1095.53 526.342 1100.46 529.262 1105.35C529.772 1114.01 529.012 1133.33 520.412 1143.57C517.282 1147.3 517.762 1152.86 521.492 1155.99C523.142 1157.38 525.152 1158.06 527.162 1158.06C529.672 1158.06 532.172 1156.99 533.912 1154.92C539.802 1147.91 543.082 1139 544.892 1130.48C571.472 1171.53 599.722 1206.72 629.862 1236.2C631.442 1252.45 625.182 1258.49 624.632 1258.99C620.912 1261.95 620.201 1267.35 623.071 1271.18C624.801 1273.49 627.452 1274.7 630.122 1274.7C631.962 1274.7 633.822 1274.13 635.402 1272.94C636.562 1272.07 644.022 1265.93 646.742 1251.96C691.582 1291.79 740.472 1319.68 794.022 1336.12C798.682 1337.55 803.612 1334.93 805.032 1330.28C805.082 1330.13 805.082 1329.99 805.122 1329.84C897.082 1375.25 1024.03 1377.86 1051.68 1377.86C1054.42 1377.86 1056.19 1377.83 1056.84 1377.82C1061.71 1377.73 1065.58 1373.72 1065.5 1368.85C1065.42 1363.99 1061.38 1360.11 1056.53 1360.19C1054.43 1360.24 844.252 1362.87 759.302 1276.8C723.372 1240.39 699.051 1210.94 677.591 1184.96C650.421 1152.05 629.432 1126.64 598.732 1104.21C619.042 1105.03 653.032 1110.6 702.532 1131.71C702.762 1131.81 702.991 1131.85 703.221 1131.93C719.641 1150.39 737.242 1168.94 757.052 1187.89C768.092 1198.46 778.652 1207.6 788.852 1215.54C784.692 1232.39 772.261 1242.41 771.971 1242.64C768.141 1245.61 767.432 1251.13 770.392 1254.97C772.132 1257.23 774.742 1258.41 777.382 1258.41C779.262 1258.41 781.152 1257.81 782.752 1256.58C783.432 1256.06 797.002 1245.38 803.882 1226.49C822.862 1239.38 840.761 1247.88 858.451 1252.83C858.681 1253.4 858.962 1253.95 859.312 1254.48C868.662 1268.51 867.161 1280.08 867.071 1280.75C866.291 1285.51 869.492 1290.03 874.262 1290.85C874.772 1290.94 875.282 1290.98 875.782 1290.98C879.982 1290.98 883.711 1287.96 884.451 1283.68C884.551 1283.09 886.352 1271.86 880.552 1257.24C909.762 1260.8 939.441 1255.75 973.571 1245.98C978.101 1244.68 982.962 1243.25 988.132 1241.72C1068.17 1218.1 1217.16 1174.12 1334.74 1282.48C1336.44 1284.04 1338.58 1284.81 1340.71 1284.81C1343.09 1284.81 1345.46 1283.85 1347.19 1281.97C1350.49 1278.39 1350.26 1272.82 1346.68 1269.52C1221.74 1154.39 1066.53 1200.2 983.132 1224.82C978.012 1226.33 973.191 1227.75 968.701 1229.04C892.501 1250.87 845.611 1248.27 769.211 1175.16C719.231 1127.33 683.122 1081.79 644.892 1033.57C621.942 1004.63 598.212 974.691 571.052 943.971C567.622 940.091 564.232 936.511 560.882 933.091C577.722 936.861 603.752 949.281 633.772 986.811C644.212 999.861 655.202 1013.22 666.682 1026.46L659.612 1040.07C657.362 1044.39 659.052 1049.71 663.362 1051.95C664.662 1052.63 666.052 1052.95 667.422 1052.95C670.602 1052.95 673.682 1051.22 675.252 1048.2L679.201 1040.61C704.111 1068.24 731.102 1094.65 759.612 1115.98L757.732 1139.09C757.332 1143.94 760.942 1148.2 765.802 1148.59C766.042 1148.61 766.292 1148.62 766.532 1148.62C771.072 1148.62 774.932 1145.13 775.302 1140.52L776.341 1127.76C810.491 1150.32 846.582 1164.82 883.742 1164.82C920.902 1164.82 951.352 1162.8 977.362 1161.02C997.382 1159.65 1014.66 1158.47 1031.94 1158.47C1185.19 1158.47 1366.4 1174.02 1412.39 1294.09C1385.35 1366.55 1338.42 1412.65 1269 1434.83C1215.1 1436.98 1165.67 1429.6 1091.17 1418.45L1091.16 1418.42ZM1426.24 1307.22C1433.6 1312.08 1440.87 1317.36 1448.06 1323C1440.84 1339.41 1411.45 1391.9 1312.87 1453.27C1311.44 1453.99 1310.08 1454.84 1308.8 1455.79C1305.99 1457.52 1303.09 1459.25 1300.17 1460.99C1295.47 1455.34 1291.16 1450.68 1287.52 1447.03C1352.27 1422.56 1398.85 1375.62 1426.23 1307.23L1426.24 1307.22ZM1365.39 1614.18C1364.76 1610.21 1364.1 1606.31 1363.38 1602.49C1474.59 1558.32 1542.54 1487.38 1565.16 1460.88C1567.45 1464.7 1569.69 1468.57 1571.91 1472.46C1553.92 1492.37 1479.75 1568.87 1365.39 1614.19V1614.18Z" fill="url(#paint3_linear_157_498)"/>
<path d="M1382.68 1053.47C1381.42 1052.15 1379.33 1052.1 1378.01 1053.36L1367.39 1063.49C1358.47 1057.85 1324.27 1035.97 1305.92 1020.35C1305.9 1020.33 1305.87 1020.31 1305.85 1020.29C1301.57 1016.65 1298.15 1013.34 1296.13 1010.67C1293.05 1006.6 1290.56 1001.31 1288.78 995.25C1288.75 995.17 1288.74 995.08 1288.71 995C1283.42 976.69 1284.68 951.53 1296.33 932.21C1297.27 930.65 1296.77 928.61 1295.2 927.67C1293.64 926.73 1291.6 927.23 1290.66 928.8C1285.5 937.36 1282.23 946.87 1280.51 956.47C1275.24 949.45 1271.72 941.98 1270.01 937.92C1276.98 935.12 1279.33 930.94 1279.5 930.6C1280.33 929.01 1279.72 927.08 1278.15 926.21C1276.58 925.35 1274.58 925.92 1273.68 927.48C1273.61 927.6 1266.42 939.21 1235.23 930.76C1218.43 926.21 1207.92 920.98 1197.77 915.92C1187.47 910.79 1177.75 905.95 1163.25 903.1C1151.11 900.71 1134.48 897.44 1132.62 892.57C1131.81 890.45 1133.85 887.08 1135.71 884.63C1146.65 870.15 1184.64 838.58 1210.99 822.08C1212.54 821.11 1213.01 819.07 1212.04 817.53C1211.07 815.98 1209.03 815.52 1207.49 816.48C1206.72 816.96 1205.92 817.49 1205.13 818L1189.68 800.02C1193.51 794.72 1195.65 790.94 1195.9 790.49C1196.78 788.89 1196.2 786.88 1194.6 786C1193 785.12 1190.99 785.69 1190.11 787.29C1189.94 787.6 1172.6 818.46 1143.17 830.81C1113.69 843.18 1099.04 841.9 1098.9 841.88C1097.42 841.73 1096 842.59 1095.46 843.99C1094.92 845.39 1095.41 846.99 1096.63 847.86C1096.72 847.93 1106.03 854.72 1115.03 873.05C1116.36 875.75 1117.52 878.26 1118.62 880.63C1125.59 895.66 1130.19 905.59 1154.86 919.41C1180.59 933.82 1268.63 977.95 1279.73 983.5C1280 985.79 1280.35 988.02 1280.79 990.21C1261.89 981.22 1204.51 953.78 1168.06 934.89C1125.75 912.96 1118.12 893.63 1118.02 893.37C1117.47 891.32 1116.87 889.24 1116.17 887.07C1107.1 859.03 1091.25 847.09 1090.13 846.27C1094.76 838.43 1097.33 830.34 1097.33 822.63C1097.33 795.49 1077.94 748.97 1045.25 736.06C1045.01 735.38 1044.78 734.71 1044.51 734.02C1046.05 728.72 1050.99 715.95 1064.86 705.11C1064.93 705.07 1065.01 705.05 1065.08 705C1065.13 704.97 1065.15 704.91 1065.19 704.88C1070.95 700.43 1078.2 696.33 1087.37 693.24C1126.23 680.16 1156.23 679.61 1156.53 679.61C1158.35 679.58 1159.82 678.09 1159.79 676.26C1159.77 674.44 1158.13 672.83 1156.44 673C1155.54 673.01 1139.77 673.31 1116.21 678.44C1107.17 658.89 1091.51 635.51 1073.4 608.55C1061.46 590.78 1049.12 572.4 1037.33 553.1C1015.56 517.46 1002 474.93 996.091 452.94C1017.64 480.96 1071.62 550.28 1107.23 588.57C1108.48 589.91 1110.57 589.98 1111.9 588.74C1113.24 587.5 1113.31 585.41 1112.07 584.07C1067.16 535.8 992.731 437.69 991.991 436.7C991.851 436.52 991.681 436.38 991.511 436.24C991.471 436.2 991.431 436.16 991.391 436.12C990.741 435.6 989.921 435.36 989.091 435.43C989.061 435.43 989.041 435.42 989.011 435.43C988.961 435.43 988.931 435.46 988.881 435.47C988.711 435.5 988.531 435.49 988.361 435.55C988.201 435.6 988.061 435.7 987.911 435.77C987.831 435.81 987.741 435.84 987.671 435.89C987.371 436.07 987.101 436.29 986.871 436.56C986.841 436.59 986.801 436.62 986.781 436.65C986.541 436.95 986.351 437.3 986.231 437.67C986.201 437.76 986.201 437.86 986.171 437.95C986.121 438.15 986.061 438.35 986.051 438.57C981.831 541.19 1006.28 629.69 1058.63 701.73C1049.02 709.89 1043.6 718.82 1040.67 725.46C1034.93 714.06 1025.98 701.77 1011.89 690.14C978.271 662.4 967.201 662.59 905.611 676.59C844.711 690.43 829.261 683.71 814.091 672.71C812.821 671.8 811.101 671.89 809.941 672.93C809.001 673.77 800.801 681.97 800.801 710C800.801 738.03 820.511 768.71 861.071 805.04C865.411 808.92 869.481 812.62 873.331 816.12C901.411 841.63 918.151 856.83 941.071 856.83C942.841 856.83 944.671 856.7 946.521 856.52C947.221 858.15 948.001 859.69 948.791 861.21C948.581 861.62 948.451 862.06 948.431 862.54C948.411 863.09 947.971 876.26 956.431 902.95C957.531 906.41 958.811 909.9 960.181 913.4C952.991 913.93 931.461 915.71 909.071 919.39C895.711 921.58 877.791 929.27 860.461 936.71C842.021 944.62 822.961 952.8 812.411 952.8C792.001 952.8 737.231 932.22 736.681 932.01C735.061 931.4 733.231 932.14 732.511 933.72C731.781 935.3 732.411 937.17 733.931 938C747.821 945.56 761.951 954.3 776.921 963.55C829.561 996.08 895.071 1036.57 997.991 1053.08C1055.22 1062.26 1107.95 1065.82 1153.07 1065.82C1199.95 1065.82 1238.62 1061.97 1265.53 1056.58C1312.88 1047.1 1340.73 1055.2 1344.24 1056.32C1355.96 1064.11 1365.13 1069.84 1366.1 1070.44C1366.64 1070.78 1367.24 1070.94 1367.85 1070.94C1368.68 1070.94 1369.5 1070.63 1370.13 1070.03L1382.61 1058.12C1383.93 1056.86 1383.98 1054.77 1382.72 1053.45L1382.68 1053.47ZM992.191 463.61C999.131 487.45 1012.08 524.48 1031.67 556.56C1043.53 575.98 1055.91 594.42 1067.89 612.25C1085.45 638.4 1100.68 661.14 1109.59 679.97C1102.05 681.8 1093.89 684.07 1085.23 686.99C1076.65 689.88 1069.66 693.61 1063.84 697.7C1016.01 631.87 992.461 555.05 992.191 463.6V463.61ZM1117.08 945.98C1125.4 950.55 1147.79 962.17 1190.56 980.18C1242.97 1002.24 1296.62 1023.49 1301.92 1025.58C1305.72 1028.8 1310.1 1032.23 1314.75 1035.71C1290.99 1027.42 1250.74 1014.05 1204.73 1001.53C1142.67 984.65 1115.49 981.18 1107.91 980.48C1108.96 976.07 1110.06 971.65 1111.29 967.36C1113.57 959.39 1115.52 952.39 1117.09 945.97L1117.08 945.98ZM1185.58 805.4L1199.56 821.67C1192.94 826.14 1185.96 831.19 1179.02 836.5L1168.1 823.15C1175.25 817.27 1181.13 810.93 1185.58 805.4ZM1120.95 870.15C1115.75 859.56 1110.42 852.51 1106.5 848.18C1114.18 847.33 1127.2 844.69 1145.72 836.91C1151.99 834.28 1157.7 830.9 1162.86 827.19L1173.8 840.56C1155.05 855.32 1137.59 871.18 1130.44 880.66C1129.39 882.05 1128.53 883.38 1127.84 884.65C1126.77 882.52 1125.73 880.28 1124.61 877.87C1123.49 875.46 1122.3 872.9 1120.96 870.15H1120.95ZM1158.08 913.66C1153.34 911.01 1149.45 908.53 1146.14 906.15C1150.73 907.31 1155.97 908.41 1161.98 909.59C1175.6 912.27 1184.51 916.7 1194.83 921.84C1204.79 926.8 1216.07 932.41 1233.51 937.14C1242.31 939.52 1249.51 940.44 1255.37 940.44C1258.49 940.44 1261.19 940.17 1263.6 939.73C1265.67 944.82 1270.88 956.15 1279.37 965.46C1279.1 968.95 1278.99 972.42 1279.1 975.82C1259.15 965.82 1181.82 926.96 1158.07 913.66H1158.08ZM1165 940.78C1205.82 961.93 1272.76 993.75 1282.9 998.56C1284.77 1004.43 1287.28 1009.63 1290.32 1013.86C1270 1005.74 1231.23 990.13 1193.13 974.09C1147.73 954.98 1125.1 942.88 1118.64 939.27C1120.96 928.34 1121.86 918.93 1120.91 908.98C1128.41 917.32 1141.71 928.7 1165.01 940.78H1165ZM1090.7 822.65C1090.7 846.55 1062.79 874.51 1024.68 883.12C1009.11 870.2 1001.92 846.2 996.421 824.58C994.311 816.3 991.711 811.68 988.001 809.6C983.831 807.26 979.431 808.62 974.781 810.06C971.461 811.08 967.701 812.25 963.491 812.25C959.921 812.25 956.371 807.66 954.661 800.82C953.991 798.16 953.631 795.01 953.631 791.64C958.651 798.46 968.331 805.84 986.861 805.9C986.861 805.9 986.861 805.9 986.871 805.9C992.381 806.22 997.441 806.39 1002.11 806.39C1024.43 806.39 1037.56 802.64 1044.85 794.48C1051.23 787.34 1053 776.94 1050.43 761.76C1050.24 757.3 1049.56 751.32 1047.79 744.4C1074.82 758.55 1090.7 798.75 1090.7 822.68V822.65ZM943.731 800.89C943.731 795.04 945.101 789.4 947.521 784.05C946.551 790.4 946.821 796.72 948.241 802.42C950.781 812.56 956.621 818.85 963.481 818.85C968.691 818.85 973.151 817.48 976.721 816.37C980.651 815.16 983.151 814.46 984.761 815.36C986.691 816.44 988.451 820.09 990.011 826.21C995.311 847.05 1002.18 870.04 1016.56 884.63C1011.52 885.37 1006.37 885.83 1001.08 885.83C963.031 885.83 943.731 857.25 943.731 800.89ZM1027.52 739.26C1031.88 739.26 1036.03 739.96 1040 741.19C1043.23 751.27 1043.89 759.71 1043.89 764.76C1043.89 777.77 1017.33 799.29 987.051 799.29C961.261 799.29 956.001 783.75 955.121 780.14C957.001 773.11 960.801 766.01 967.291 760.28C983.951 747.39 1006.89 739.26 1027.51 739.26H1027.52ZM1044.54 779.57C1043.86 783.91 1042.34 787.37 1039.93 790.07C1035.91 794.56 1029.11 797.43 1018.86 798.81C1029.82 793.88 1038.95 786.92 1044.54 779.57ZM877.751 811.25C873.891 807.74 869.801 804.03 865.461 800.14C826.391 765.13 807.391 735.66 807.391 710.02C807.391 692.36 810.851 683.61 812.891 679.99C828.731 690.85 846.881 696.73 907.051 683.06C969.301 668.91 976.821 669.82 1007.66 695.27C1023.16 708.06 1032.06 721.65 1037.18 733.7C1034.06 733.05 1030.84 732.67 1027.51 732.67C1007.47 732.67 985.881 739.53 968.821 750.9C968.311 751.22 967.831 751.56 967.341 751.9C949.601 764.19 937.111 781.44 937.111 800.91C937.111 820.38 939.481 836.76 944.051 850.13C921.991 851.43 905.801 836.76 877.731 811.26L877.751 811.25ZM955.801 872.16C966.491 885.52 981.621 892.45 1001.09 892.45C1038.31 892.45 1070.45 873.83 1086.47 851.83C1088.52 853.45 1102 864.8 1109.87 889.13C1118.5 915.82 1114.83 930.93 1104.94 965.57C1101.82 976.5 1099.35 988.1 1097.18 998.34C1093.56 1015.4 1089.05 1036.64 1083.63 1036.64C1078.21 1036.64 1066.61 1026.19 1055.46 1016.07C1046.16 1007.63 1035.61 998.07 1025.43 991.46C1004.64 977.96 975.581 941.67 962.701 900.99C958.621 888.09 956.701 878.51 955.801 872.16ZM1264.21 1050.14C1211.96 1060.61 1114.86 1065.18 999.011 1046.59C897.391 1030.29 832.511 990.19 780.371 957.97C775.511 954.97 770.741 952.02 766.041 949.15C782.591 954.35 801.561 959.46 812.381 959.46C824.281 959.46 843.111 951.38 863.031 942.83C880.001 935.55 897.541 928.02 910.101 925.96C935.601 921.77 959.981 920.07 962.791 919.89C976.581 951.65 1000.09 982.91 1021.82 997.01C1031.55 1003.33 1041.89 1012.7 1051 1020.97C1064.72 1033.42 1075.56 1043.25 1083.61 1043.25C1094.39 1043.25 1098.26 1024.99 1103.63 999.71C1104.49 995.66 1105.41 991.37 1106.39 987.02C1111.75 987.47 1138.55 990.41 1202.99 1007.93C1257.47 1022.75 1303.82 1038.77 1324.09 1046.04C1310.16 1044.81 1290.06 1044.95 1264.2 1050.13L1264.21 1050.14ZM991.711 978.91C991.911 980.72 990.601 982.36 988.791 982.56C977.341 983.83 965.131 984.47 952.001 984.47C918.311 984.47 878.541 980.26 829.941 971.65C828.141 971.33 826.951 969.62 827.261 967.82C827.581 966.02 829.291 964.81 831.091 965.14C897.991 976.98 947.871 980.43 988.061 975.99C989.841 975.78 991.511 977.1 991.711 978.91Z" fill="url(#paint4_linear_157_498)"/>
<path d="M2253.2 999.201C2192.39 956.771 2100.79 943.061 2054.15 944.211C2019.22 945.061 1991.47 952.071 1980.8 955.161C1974.34 942.681 1952.25 906.761 1897.68 869.311L1958.9 770.081C1960.11 770.021 1961.3 769.981 1962.43 769.981C1977.69 769.981 1990.51 773.501 2001.81 776.601C2010.99 779.121 2019.67 781.511 2028.05 781.511C2051.22 781.511 2067.41 774.361 2076.19 760.271C2091.75 735.301 2083.21 690.381 2050.1 622.941C2047.18 617.001 2043.9 611.121 2040.32 605.311C2047.53 588.961 2084.01 500.951 2106.31 346.201C2130.85 175.901 2174.34 8.54082 2174.78 6.87082C2174.78 6.84082 2174.78 6.82083 2174.78 6.79083C2174.82 6.63083 2174.8 6.47082 2174.83 6.31082C2174.91 5.81082 2174.94 5.32081 2174.88 4.83081C2174.85 4.61081 2174.79 4.41083 2174.74 4.19083C2174.64 3.76083 2174.5 3.36083 2174.29 2.97083C2174.18 2.77083 2174.08 2.58083 2173.95 2.38083C2173.68 1.98083 2173.35 1.64083 2172.97 1.32083C2172.86 1.23083 2172.8 1.09084 2172.68 1.01084C2172.64 0.980835 2172.58 0.980838 2172.54 0.950838C2172.48 0.910838 2172.44 0.850823 2172.38 0.810823C2171.86 0.480823 2171.3 0.260821 2170.72 0.120821C2170.64 0.100821 2170.56 0.120832 2170.48 0.100832C2169.92 -0.00916829 2169.35 -0.0291658 2168.78 0.0408342C2168.57 0.0708342 2168.38 0.130818 2168.18 0.180818C2167.75 0.280818 2167.34 0.43083 2166.94 0.63083C2166.73 0.74083 2166.54 0.850816 2166.34 0.990816C2166.19 1.09082 2166.03 1.14084 2165.89 1.26084C2158.78 7.25084 1991.16 149.191 1934.06 245.361C1883.74 330.111 1846.73 431.731 1838.54 454.991C1829.44 452.751 1821.14 451.561 1813.95 451.561C1801.99 451.561 1790.69 455.441 1780.95 460.501C1789.26 436.501 1805.11 384.871 1805.11 340.091C1805.11 283.941 1770.82 253.201 1708.57 197.381C1702.37 191.821 1695.87 185.991 1689.08 179.851C1623.76 120.781 1591.11 92.3208 1583.99 86.1608L1574.39 30.1708C1573.91 27.3808 1571.34 25.3908 1568.58 25.6108C1566.53 25.7508 1517.9 29.9308 1469.5 101.401C1439.4 145.841 1424.77 249.701 1426.02 410.081C1426.04 413.391 1426.07 416.021 1426.07 417.891C1426.07 443.841 1451.51 463.461 1462.12 470.521C1458.82 476.841 1455.79 483.401 1453.22 490.121C1443.73 493.031 1417.69 506.871 1383.41 572.221C1342.2 524.821 1295.93 486.601 1249.17 461.471C1239.37 456.201 1228.97 451.031 1217.97 445.561C1179.01 426.181 1134.85 404.211 1124.05 378.731C1109.61 344.651 1065.25 234.071 1064.8 232.961C1063.77 230.391 1060.98 228.981 1058.31 229.681C1055.63 230.371 1053.88 232.951 1054.23 235.701C1054.44 237.381 1075.87 405.481 1110.01 559.101C1139.91 693.631 1212.14 809.051 1288.61 931.251C1296.93 944.541 1305.27 957.881 1313.59 971.291C1382.18 1081.86 1468.77 1163.26 1532 1222.7C1545.55 1235.43 1558.34 1247.46 1569 1258C1621.52 1309.92 1648.08 1360.2 1652.08 1368.08C1651.98 1380.04 1651.12 1392.49 1649.02 1405.61C1648.56 1408.47 1650.4 1411.2 1653.23 1411.85C1654.91 1412.23 1668.68 1415.31 1688.44 1418.06C1737.08 1490.68 1781.92 1577.66 1825.44 1683.91C1826 1685.28 1827.08 1686.37 1828.46 1686.92C1829.13 1687.19 1829.83 1687.33 1830.54 1687.33C1831.28 1687.33 1832.03 1687.18 1832.73 1686.88L1871.84 1669.99C1874.17 1668.98 1875.51 1666.52 1875.08 1664.02L1832.05 1408.45C1831.94 1407.77 1831.67 1407.16 1831.34 1406.59C1834.66 1404.84 1837.82 1402.92 1840.79 1400.8C1873.58 1377.48 1880.99 1368.21 1888.83 1358.41C1894.13 1351.79 1899.6 1344.93 1914.58 1332.57C1949.97 1303.36 1949.18 1276.55 1947.87 1232.13C1947.85 1231.33 1947.82 1230.52 1947.8 1229.7C1966.7 1244.2 2008.14 1273.77 2031.77 1273.76C2031.96 1273.76 2032.15 1273.76 2032.35 1273.76C2062.16 1273.14 2133.58 1244.52 2172.46 1225.37C2207.4 1208.16 2220.02 1193.74 2235.99 1175.48C2238.38 1172.75 2240.86 1169.91 2243.52 1166.95C2261.88 1146.49 2287.3 1132.79 2323.49 1123.83C2326.26 1123.15 2328.04 1120.47 2327.61 1117.65C2327.15 1114.61 2315.52 1042.69 2253.19 999.201H2253.2ZM2026.25 1044.93C2022.97 1041.54 2018.9 1039.49 2014.32 1039.08C2013.76 1039.03 2013.17 1039 2012.58 1038.97C2017.41 1035.79 2021.13 1032.09 2023.56 1027.49C2024.99 1033.7 2025.83 1039.55 2026.26 1044.93H2026.25ZM1910.79 1208.11L1951.57 1060.61C1961.84 1057.75 1996.61 1048.55 2013.34 1050.05C2016.39 1050.32 2018.78 1052.22 2020.65 1055.85C2028.42 1070.97 2023.46 1109.87 1994.19 1159.56C1963.53 1211.61 1924.64 1210.47 1910.8 1208.11H1910.79ZM1694.74 1158.78C1685.57 1123.27 1650.14 983.661 1637.66 899.471C1634.44 877.701 1632.68 861.041 1632.09 847.871C1642.51 867.781 1657.24 900.741 1667.34 943.411C1674.94 975.531 1695 1046.99 1729.26 1081.25C1724.45 1090.69 1712.17 1116.84 1704.31 1151.31C1701.06 1153.73 1697.87 1156.23 1694.74 1158.79V1158.78ZM1534.69 854.781C1556.01 962.621 1592.01 1097.05 1644.69 1265.51C1644.84 1273.26 1645.35 1280.99 1646.03 1288.77C1583.43 1133.49 1515.54 971.791 1466.38 887.571C1476.1 882.921 1486.51 877.921 1497.64 872.551C1511.5 865.871 1524.31 859.701 1534.69 854.781ZM1649.1 1219.74C1647.97 1224.6 1647.16 1229.39 1646.49 1234.15C1598.23 1077.77 1564.95 951.811 1544.96 849.951C1548.85 848.141 1552.12 846.661 1554.61 845.591C1570.26 838.841 1586.33 824.211 1600.78 807.191C1591.2 848.671 1598.73 886.761 1616.05 974.351L1620.97 999.311C1643.02 1111.67 1660.58 1176.07 1664.33 1189.39C1657 1199.1 1651.54 1209.27 1649.11 1219.74H1649.1ZM1672.92 1179.11C1666.8 1156.53 1651.02 1095.21 1631.78 997.191L1626.86 972.221C1606.01 866.781 1599.68 834.711 1620.55 781.181C1629.71 767.801 1637.46 754.561 1642.89 743.691C1655.39 718.691 1652.77 699.141 1649.69 688.991C1650.4 688.901 1651.11 688.811 1651.82 688.701C1654.06 691.061 1660.42 697.621 1669.7 706.331C1666.78 714.741 1658.27 738.221 1644.88 766.221C1641.81 772.641 1638.84 777.751 1635.97 782.681C1629.8 793.301 1624.64 802.201 1622.29 817.671C1621.14 820.501 1620.78 823.631 1621.3 826.681C1620.15 842.951 1621.53 865.721 1626.77 901.081C1640.08 990.891 1679.23 1142.92 1685.43 1166.75C1681 1170.75 1676.81 1174.88 1672.92 1179.11ZM1496.96 438.331C1533.84 395.231 1551.45 382.851 1583.54 381.141C1579.47 383.781 1576.05 386.851 1573.4 390.411C1558.11 393.101 1533 404.961 1533 434.161C1533 456.791 1548.33 464.261 1559.52 469.721C1568.18 473.941 1571.99 476.301 1572.45 480.791C1566.56 495.581 1552.28 512.661 1538.4 529.211C1518.52 552.911 1497.96 577.421 1497.96 599.601C1497.96 607.301 1499.69 614.201 1502.41 620.381C1501.89 620.131 1501.43 619.961 1500.87 619.641C1485.38 611.041 1460.33 580.871 1455.73 543.461C1451.21 506.701 1475.11 463.851 1496.96 438.331ZM1686.53 519.701C1666.05 519.701 1618.13 495.161 1593.91 461.261C1591.87 458.401 1590.03 455.541 1588.38 452.681C1585.94 447.901 1583.94 443.391 1582.45 439.331C1581.5 436.731 1580.67 434.221 1579.98 431.791C1577.35 420.431 1577.88 409.101 1581.6 397.891C1587.18 389.601 1598.51 384.301 1615.3 382.141C1640.69 378.871 1697.07 404.221 1731.26 434.301C1745.54 446.861 1753.73 458.601 1753.73 466.491C1753.73 496.451 1717.61 519.691 1686.53 519.691V519.701ZM1719.48 523.891C1709.42 532.141 1697.39 538.371 1682.25 538.371C1665.12 538.371 1646.06 525.661 1629.06 508.551C1650.94 522.671 1673.32 530.721 1686.53 530.721C1697.53 530.721 1708.91 528.281 1719.48 523.891ZM1509.35 604.631C1509.14 602.991 1508.98 601.331 1508.98 599.601C1508.98 581.421 1528.23 558.481 1546.84 536.291C1548.02 534.881 1549.2 533.471 1550.38 532.061C1545.65 540.231 1540.7 548.481 1536.05 556.191C1525.24 574.151 1515.02 591.121 1509.99 602.941C1509.75 603.511 1509.56 604.071 1509.34 604.631H1509.35ZM1520.14 607.251C1524.87 596.131 1534.89 579.491 1545.5 561.871C1564.21 530.791 1583.56 498.651 1583.56 481.721C1583.56 481.671 1583.54 481.621 1583.54 481.571C1583.54 481.491 1583.52 481.421 1583.52 481.351C1583.3 469.111 1573.26 464.171 1564.35 459.831C1553.44 454.521 1544.02 449.921 1544.02 434.181C1544.02 415.461 1557.52 407.121 1567.32 403.531C1565.1 412.681 1565.93 423.541 1569.82 436.331C1571.69 443.531 1574.63 450.701 1578.62 457.781C1598.24 496.101 1643.38 549.391 1682.25 549.391C1714.15 549.391 1733.84 526.751 1748.21 510.221C1754.36 503.141 1762.01 494.331 1765.19 495.431C1766.28 495.811 1767.44 497.591 1768.29 500.181C1774.49 519.111 1764.56 572.251 1729.81 622.801C1693.66 675.391 1641.99 691.851 1588.06 667.931C1537.69 645.591 1509.71 631.761 1520.14 607.261V607.251ZM1834.21 833.941C1814.34 825.431 1796.77 820.341 1780.97 816.951L1786.01 782.771C1795.94 785.801 1805.77 787.581 1815.22 787.581C1826.23 787.581 1836.71 787.121 1846.73 786.371L1834.26 833.011C1834.18 833.321 1834.23 833.631 1834.2 833.941H1834.21ZM1770.15 814.821C1761.51 813.261 1753.39 812.081 1745.72 810.991C1733.47 809.241 1721.9 807.591 1710.92 804.691C1679.52 796.401 1655.14 796.641 1636.77 805.411C1639.1 799.241 1642.11 794.051 1645.51 788.211C1648.35 783.331 1651.57 777.791 1654.83 770.971C1666.52 746.531 1674.58 725.401 1678.53 714.421C1702.54 735.991 1739.06 764.961 1775.43 779.101L1770.16 814.821H1770.15ZM1737.87 1088.74C1740.15 1090.47 1742.47 1092.06 1744.85 1093.43C1746.73 1094.51 1748.63 1095.42 1750.54 1096.25C1747.75 1102.05 1741.79 1115.16 1737.72 1129.18C1731.35 1132.97 1724.74 1137.11 1718.12 1141.56C1724.84 1117.01 1733.4 1097.89 1737.87 1088.74ZM1761.22 1099.49C1767.43 1100.61 1773.72 1100.42 1780.07 1098.91C1780.81 1101.06 1781.64 1103.26 1782.58 1105.51C1776.47 1108.33 1765.36 1113.65 1752.02 1120.99C1755.72 1110.95 1759.69 1102.59 1761.22 1099.49ZM1787.03 1078.09C1787.03 1061.93 1792.44 1050.58 1799.28 1036.2C1804.41 1025.41 1810.24 1013.19 1815.2 996.301C1820.29 978.991 1826.54 967.591 1834.01 960.211L1941.07 1055.33C1920.04 1103.27 1896.78 1155.61 1880.06 1189.43C1820.09 1158.76 1787.02 1104.71 1787.02 1078.08L1787.03 1078.09ZM1850.08 950.451L1886.34 991.961L1843.01 953.461C1845.27 952.221 1847.63 951.241 1850.08 950.441V950.451ZM1880.17 1201.78C1880.94 1202.15 1881.75 1202.32 1882.55 1202.32C1884.57 1202.32 1886.51 1201.21 1887.48 1199.28C1897.27 1179.81 1909.6 1153.14 1922.53 1124.37L1899.5 1207.68C1894.05 1208.6 1879.1 1208.66 1858.17 1189.58C1865.1 1193.94 1872.41 1198.06 1880.18 1201.77L1880.17 1201.78ZM2011.94 997.141C2016.16 1008.43 2016.82 1016.33 2014.04 1021.98C2009.2 1031.81 1992.49 1036.96 1969.36 1044.08C1966.33 1045.01 1963.16 1045.99 1959.91 1047.01C1956.44 1047.88 1953.43 1048.68 1951.06 1049.32L1862.56 948.001C1865.25 947.761 1868.03 947.641 1870.9 947.641C1902.69 947.641 1944.83 953.631 1975.09 966.461C1975.47 966.691 1975.86 966.861 1976.28 966.991C1993.86 974.631 2007.25 984.611 2011.93 997.141H2011.94ZM1965.87 951.471C1934.89 941.041 1897.85 936.631 1870.91 936.631C1863.56 936.631 1856.91 937.421 1850.84 938.991C1850.59 939.051 1850.34 939.081 1850.09 939.171C1843.21 941.031 1837.1 943.921 1831.69 947.971C1831.06 948.281 1830.48 948.711 1829.98 949.271C1829.94 949.311 1829.9 949.361 1829.86 949.401C1818.7 958.561 1810.59 972.901 1804.62 993.201C1799.9 1009.24 1794.28 1021.05 1789.32 1031.47C1782.17 1046.48 1776 1059.45 1776 1078.09C1776 1081.19 1776.46 1084.66 1777.19 1088.3C1768.01 1090.41 1759.2 1088.98 1750.33 1083.89C1722.5 1067.89 1695.48 1014.43 1678.07 940.871C1664.23 882.401 1641.84 841.551 1632.86 826.701C1632.63 826.321 1632.53 825.901 1632.4 825.491C1632.54 823.921 1632.72 822.441 1632.92 821.011C1633.25 820.511 1633.65 820.041 1634.15 819.681C1650.45 807.941 1674.63 806.521 1708.09 815.361C1719.7 818.431 1731.58 820.121 1744.15 821.911C1778.48 826.801 1817.4 832.351 1874.66 867.441C1928.25 900.271 1954.67 933.901 1965.85 951.481L1965.87 951.471ZM1888.53 863.201C1885.87 861.481 1883.24 859.761 1880.44 858.041C1867.32 850.001 1855.1 843.521 1843.58 838.141C1844.18 837.501 1844.68 836.761 1844.92 835.861L1858.42 785.351C1881.8 783.001 1902.33 779.181 1920.08 775.871C1929.17 774.171 1937.58 772.621 1945.08 771.521L1888.52 863.191L1888.53 863.201ZM2095.43 344.631C2075.42 483.491 2044.03 567.791 2033.07 594.281C2012.13 564.131 1983.28 536.411 1952.62 513.571C1960.83 499.641 1985.35 453.321 2011.09 358.921C2037.9 260.611 2074.34 153.361 2156.99 32.7208C2143.52 87.9908 2114.05 215.421 2095.43 344.621V344.631ZM1943.57 250.991C1984.38 182.251 2086.14 86.7608 2139.37 39.1408C2061.8 155.951 2026.6 260.201 2000.46 356.021C1975.78 446.531 1951.86 492.721 1943.63 507.061C1911.06 484.061 1877.22 466.771 1849.2 458.001C1857.73 433.851 1894.21 334.121 1943.57 250.991ZM1839.97 466.731C1840.1 466.781 1840.18 466.881 1840.31 466.931C1840.53 467.001 1840.74 466.971 1840.96 467.011C1903.05 484.521 2003.09 552.151 2040.23 627.791C2071.1 690.651 2080.06 733.261 2066.86 754.441C2060.13 765.241 2047.44 770.491 2028.07 770.491C2021.18 770.491 2013.56 768.401 2004.75 765.981C1992.77 762.691 1979.2 758.961 1962.45 758.961C1950.76 758.961 1936.33 761.651 1918.06 765.061C1890.55 770.191 1856.31 776.581 1815.23 776.581C1759.35 776.581 1685.34 706.721 1664.67 686.061C1692.74 678.391 1718.18 659.171 1738.9 629.041C1773.71 578.411 1786.7 520.951 1778.77 496.751C1776.25 489.051 1771.97 486.121 1768.83 485.031C1767.71 484.641 1766.62 484.441 1765.54 484.351C1775.6 475.761 1794.23 462.581 1813.98 462.581C1821.4 462.581 1830.22 464.051 1839.96 466.731H1839.97ZM1437.12 417.901C1437.12 416.011 1437.1 413.351 1437.07 410.001C1435.54 213.071 1458.84 136.851 1478.66 107.581C1515.11 53.7508 1551.62 40.5908 1564.51 37.5108L1573.51 89.9808C1573.73 91.2408 1574.38 92.3908 1575.35 93.2208C1575.66 93.4908 1607.63 121.011 1681.74 188.031C1688.55 194.181 1695.05 200.021 1701.27 205.591C1763.11 261.041 1794.14 288.861 1794.14 340.091C1794.14 397.371 1766.11 469.231 1765.83 469.951C1765.83 469.971 1765.83 469.991 1765.82 470.011C1765.38 470.331 1764.97 470.651 1764.54 470.971C1764.68 469.501 1764.76 468.021 1764.76 466.511C1764.76 454.961 1755.94 441.351 1738.55 426.051C1706.69 398.021 1650.85 369.631 1618.06 370.981C1618.03 370.981 1618.01 370.961 1617.98 370.961C1557.35 366.941 1539.52 371.701 1488.61 431.181C1481.47 439.521 1474.14 449.651 1467.53 460.821C1458.07 454.371 1437.13 437.861 1437.13 417.891L1437.12 417.901ZM1448.45 504.811C1444.81 518.201 1443.21 531.801 1444.81 544.811C1449.46 582.631 1474.25 617.461 1495.54 629.281C1500.83 632.221 1505.13 633.201 1508.51 633.201C1509.08 633.201 1509.53 633.081 1510.04 633.031C1522.73 649.431 1541.04 657.841 1542.21 658.371C1542.29 658.401 1542.36 658.421 1542.44 658.451C1554.52 665.101 1568.75 671.411 1583.6 677.991C1601.52 685.941 1619.2 689.851 1636.23 689.851C1636.94 689.851 1637.64 689.791 1638.35 689.781C1640.91 696.511 1645.28 714.261 1633.03 738.761C1614.17 776.481 1578.75 823.201 1550.25 835.481C1540.21 839.811 1518.27 850.381 1492.86 862.631C1444.58 885.891 1363.77 924.841 1353.93 925.011C1343.36 923.691 1333.65 911.771 1335.56 891.541C1336.18 884.911 1337.81 875.901 1339.7 865.471C1344.43 839.341 1350.31 806.831 1346.15 781.701C1339.62 742.321 1346.89 671.201 1386.89 589.701C1414.47 533.491 1436.65 512.541 1448.44 504.791L1448.45 504.811ZM1539.57 1214.66C1476.79 1155.64 1390.8 1074.81 1322.97 965.471C1314.65 952.051 1306.29 938.701 1297.96 925.391C1222 804.021 1150.26 689.371 1120.78 556.691C1097.31 451.071 1079.86 338.551 1071.23 278.361C1085.53 313.821 1105.19 362.361 1113.94 383.011C1126.32 412.241 1170.44 434.181 1213.1 455.411C1224.02 460.841 1234.34 465.981 1243.99 471.161C1290.69 496.261 1336.97 534.841 1378.04 582.811C1377.7 583.501 1377.36 584.151 1377.01 584.861C1352.99 633.801 1341.58 675.771 1336.56 708.721C1239.7 611.321 1174.18 518.791 1136.61 426.141C1135.47 423.321 1132.26 421.961 1129.44 423.111C1126.62 424.251 1125.26 427.461 1126.41 430.281C1165.32 526.231 1233.51 621.851 1334.75 722.531C1331.43 753.121 1333.74 774.171 1335.29 783.511C1339.15 806.761 1333.45 838.231 1328.87 863.521C1326.94 874.201 1325.27 883.421 1324.6 890.521C1322.04 917.741 1336.74 933.981 1352.58 935.961C1352.83 935.991 1353.11 936.011 1353.41 936.011C1362.37 936.011 1393.87 922.171 1456.42 892.351C1508.98 982.071 1583.65 1162.63 1650.06 1328.3C1650.56 1333.54 1651.03 1338.82 1651.37 1344.2C1638.5 1322.83 1614.24 1287.22 1576.76 1250.16C1566 1239.53 1553.16 1227.45 1539.56 1214.67L1539.57 1214.66ZM1863.51 1661.58L1833.52 1674.53C1791.94 1573.74 1749.1 1490.26 1702.85 1419.83C1707.19 1420.31 1711.69 1420.74 1716.34 1421.12C1716.43 1421.36 1716.44 1421.62 1716.57 1421.85L1832.69 1632.84C1833.68 1634.64 1835.56 1635.69 1837.51 1635.69C1838.14 1635.69 1838.78 1635.58 1839.4 1635.35C1841.96 1634.42 1843.44 1631.76 1842.91 1629.1L1800.57 1417.4C1807.83 1415.78 1814.81 1413.74 1821.34 1411.15L1863.5 1661.57L1863.51 1661.58ZM1789.76 1419.47L1825.11 1596.21L1729.21 1421.98C1735.46 1422.3 1741.85 1422.49 1748.31 1422.49C1762.16 1422.49 1776.28 1421.62 1789.75 1419.47H1789.76ZM1907.58 1324.07C1891.73 1337.16 1885.88 1344.46 1880.24 1351.52C1872.89 1360.71 1865.95 1369.39 1834.41 1391.82C1787.7 1425.04 1684.55 1406.93 1660.69 1402.14C1662.42 1389.69 1663.08 1377.89 1663.11 1366.53C1663.16 1346.42 1661.17 1327.71 1659.19 1309.41C1655.99 1279.76 1652.97 1251.75 1659.84 1222.27C1663.88 1204.95 1677.69 1188.1 1694.94 1173.03C1694.98 1173 1695.01 1172.96 1695.06 1172.93C1727.87 1144.31 1773 1122.17 1787.33 1115.51C1794.25 1128.74 1804.26 1142.92 1817.37 1156.55C1851.87 1210.46 1880.6 1219.08 1895.44 1219.08C1899.39 1219.08 1902.34 1218.47 1904.17 1217.94C1907 1218.62 1912.83 1219.75 1920.65 1219.75C1925.31 1219.75 1930.69 1219.3 1936.5 1218.16C1936.5 1218.18 1936.5 1218.2 1936.5 1218.23C1936.61 1223.2 1936.75 1227.94 1936.88 1232.47C1938.18 1276.31 1938.82 1298.31 1907.58 1324.09V1324.07ZM2235.34 1159.59C2232.65 1162.59 2230.14 1165.46 2227.72 1168.22C2211.96 1186.23 2200.57 1199.24 2167.61 1215.48C2128.11 1234.93 2059.06 1262.18 2032.14 1262.74C2011.4 1263.34 1965.45 1229.86 1947.28 1215.25C1965.37 1209.07 1986.07 1195.1 2003.71 1165.16C2024.32 1130.18 2032.95 1101.63 2034.59 1080.81C2034.63 1080.7 2034.71 1080.61 2034.75 1080.49C2035.26 1078.75 2046.97 1037.33 2021.01 990.311C2020.99 990.281 2020.96 990.261 2020.95 990.241C2015.87 979.491 2005.91 970.591 1993.11 963.341C2006.42 960.111 2028.52 955.851 2054.45 955.221C2099.69 954.141 2188.29 967.321 2246.93 1008.24C2296.3 1042.68 2312.04 1097.85 2315.78 1114.45C2280.01 1123.99 2254.37 1138.41 2235.35 1159.59H2235.34Z" fill="url(#paint5_linear_157_498)"/>
<path d="M1587.61 2741.37C1586.72 2751.79 1590.65 2757.37 1599.46 2758.15C1608.27 2758.93 1624.49 2752.68 1648.18 2739.41C1724.45 2695.24 1784.89 2666.64 1829.49 2653.6C1836.08 2651.76 1843.49 2649.98 1851.69 2648.28C1855.68 2648.63 1857.8 2652.05 1858.06 2658.52C1814.03 2674.03 1761.87 2700.15 1701.55 2736.82C1636.95 2776.37 1590.81 2811.87 1563.16 2843.34C1559.54 2847.87 1552.83 2858.17 1542.99 2874.26C1533.15 2890.35 1514.63 2897.2 1487.47 2894.82C1477.07 2893.91 1464.41 2891.17 1449.51 2886.65C1428.27 2880.74 1417.93 2874.59 1418.48 2868.19C1419.3 2858.58 1426.71 2837.85 1440.73 2805.97C1476.72 2724.37 1560.62 2600.57 1692.45 2434.55C1708.62 2414.99 1732.11 2385.17 1762.94 2345.08C1771.23 2332.91 1775.76 2322.41 1776.52 2313.58C1777 2307.98 1776.04 2305.06 1773.64 2304.85C1771.24 2304.64 1768.26 2306.4 1764.73 2310.12C1454.72 2609.85 1254.57 2755.76 1164.25 2747.84C1119.48 2743.92 1100.55 2701.91 1107.42 2621.8C1113.47 2551.32 1149.32 2419.66 1214.99 2226.86C1080.67 2403.17 993.441 2514.17 953.281 2559.88C840.681 2689.66 732.911 2786.34 630.021 2849.97C498.351 2929.63 364.981 2963.56 229.901 2951.73C165.941 2946.13 112.441 2926.91 69.3507 2894.08C18.6807 2855.75 -4.03935 2806.12 1.18065 2745.25C6.34065 2685.17 26.9407 2642.18 62.9807 2616.28C67.2407 2613.44 70.5906 2612.1 72.9906 2612.31C75.3906 2612.52 76.4807 2613.83 76.2807 2616.23C55.4107 2643.46 44.3707 2664.28 43.1407 2678.7C37.4407 2745.19 64.8207 2801.25 125.341 2846.92C177.601 2885.4 238.511 2907.68 308.051 2913.77C356.801 2918.04 399.791 2914.54 437.001 2903.27C565.361 2862.04 711.341 2746.91 874.941 2557.85C972.361 2445.32 1086.7 2290.68 1217.95 2093.94C1139.34 2062.04 1060.35 2030.1 980.951 1998.12C889.561 1965.1 807.091 1945.36 733.561 1938.92C622.451 1929.19 523.561 1945.95 436.911 1989.21C334.231 2040.75 278.441 2118.6 269.501 2222.73C260.081 2332.49 285.351 2389.98 345.301 2395.23C350.881 2395.72 353.551 2397.58 353.281 2400.77C352.941 2404.79 347.561 2406.32 337.181 2405.41C319.591 2403.87 302.751 2398.37 286.661 2388.88C226.651 2356.19 199.461 2306.99 205.101 2241.3C216.031 2113.92 293.321 2020.21 437.001 1960.15C554.721 1911.56 683.121 1893.33 822.201 1905.51C888.541 1911.32 962.891 1927.12 1045.23 1952.89C1073.39 1962.62 1144.84 1988.67 1259.59 2030.99C1267.49 2013.93 1293.82 2007.35 1338.59 2011.27C1351.37 2012.39 1362.06 2009.9 1370.64 2003.79C1379.2 1997.69 1384.7 1994.73 1387.1 1994.94C1391.9 1995.36 1394.12 1997.58 1393.78 2001.58C1393.71 2002.39 1377.96 2021.59 1346.56 2059.19L1347.76 2059.3C1348.55 2059.37 1348.92 2059.82 1348.85 2060.61C1374.01 2067.66 1392.99 2071.74 1405.78 2072.86C1414.57 2073.63 1427.64 2071.56 1444.97 2066.61C1447.37 2066.82 1448.47 2068.13 1448.26 2070.53C1447.85 2075.34 1444.26 2079.47 1437.53 2082.91C1409.5 2099.83 1392.54 2109.65 1386.68 2112.35C1369.92 2119.78 1349.93 2122.87 1326.69 2121.62C1298.03 2202.25 1270.25 2286.59 1243.37 2374.62C1219.51 2455.67 1205.58 2519.43 1201.59 2565.88C1196.02 2630.77 1209.61 2664.65 1242.4 2667.52C1271.96 2670.11 1320.8 2645.33 1388.9 2593.19C1398.44 2585.15 1443.59 2547.13 1524.31 2479.14C1665 2359.91 1786.27 2241.79 1888.12 2124.8C1903.28 2107.57 1918.48 2089.93 1933.73 2071.89C1956.84 2046.49 1973.99 2034.25 1985.2 2035.24C1992.39 2035.87 2004.82 2041.01 2022.53 2050.61C2040.22 2060.24 2049.59 2068.32 2050.65 2074.86C2036.55 2088.97 2018.5 2106.76 1996.54 2128.23C1861.46 2266.52 1733.32 2450.63 1612.12 2680.52C1596.85 2708.24 1588.68 2728.52 1587.58 2741.33L1587.61 2741.37ZM948.811 2288.32C943.451 2350.8 907.231 2439.65 840.171 2554.84C829.781 2572.51 821.801 2581.07 816.221 2580.59C813.821 2580.38 812.791 2578.28 813.141 2574.27C813.621 2568.67 815.971 2559.99 820.201 2548.26C849.851 2465.31 867.521 2390.99 873.161 2325.29C877.281 2277.22 870.151 2252.38 851.771 2250.77C845.361 2250.21 839.711 2252.74 834.811 2258.37C829.891 2263.99 826.641 2266.74 825.041 2266.6C822.641 2266.39 821.551 2265.08 821.751 2262.68C821.891 2261.08 822.881 2258.75 824.771 2255.68C849.191 2215.05 876.991 2196.09 908.171 2198.82C940.131 2201.62 953.691 2231.46 948.811 2288.34V2288.32Z" fill="url(#paint6_linear_157_498)"/>
<path d="M2431.71 2556.7C2394.17 2577.11 2351.33 2608.25 2303.19 2650.15C2251.25 2694.73 2215.12 2732.92 2194.83 2764.7C2192.65 2768.06 2188.06 2777.75 2181.09 2793.79C2174.11 2809.83 2157.24 2818.9 2130.52 2820.97C2121.09 2821.7 2108.82 2821.46 2093.76 2820.24C2073.08 2817.86 2062.6 2813.92 2062.28 2808.37C2061.6 2796.5 2084.61 2750.19 2131.33 2669.44C2171.51 2598.76 2201.09 2549.95 2220.1 2523.02C2197.03 2547.88 2145.29 2596.02 2064.88 2667.44C2025.8 2702.28 1965.51 2752.67 1883.99 2818.62C1856.68 2838.22 1830.83 2848.99 1806.46 2850.88C1798.59 2851.49 1792.24 2850.79 1787.39 2848.78C1789.75 2835.09 1800.78 2806.8 1820.45 2763.92C1894.59 2596.78 1985.73 2471.25 2093.88 2387.31C2107.49 2376.71 2144.17 2369.1 2203.92 2364.46C2227.51 2362.63 2261.4 2361.6 2305.62 2361.34C2363.18 2360.06 2393.32 2362.1 2396 2367.45C2374.3 2374.7 2356.83 2386.79 2343.58 2403.72C2295.77 2465.47 2249.44 2552.94 2204.59 2666.14C2197.67 2683.37 2194.45 2695.96 2194.9 2703.86C2195.17 2708.61 2196.48 2710.9 2198.84 2710.71C2201.2 2710.53 2204.63 2708.29 2209.12 2703.95C2274.09 2638.5 2338.84 2590.13 2403.39 2558.88C2415.64 2552.38 2422.56 2549.05 2424.15 2548.92C2427.28 2548.68 2429.8 2551.28 2431.7 2556.68L2431.71 2556.7ZM2245.82 2433.98C2244.55 2411.83 2212.08 2403.2 2148.39 2408.15C2131.09 2409.49 2119.79 2412.36 2114.53 2416.74C2081.37 2444.77 2044.49 2490.15 2003.86 2552.94C1966.05 2609.95 1937.42 2661.85 1918 2708.68C1909.6 2727.63 1905.59 2740.26 1905.95 2746.58C1906.22 2751.33 1908.72 2753.52 1913.43 2753.16C1918.92 2752.73 1929.65 2746.74 1945.57 2735.16C2035.87 2670.91 2125.21 2590.03 2213.63 2492.54C2235.91 2467.76 2246.64 2448.24 2245.82 2433.99V2433.98Z" fill="url(#paint7_linear_157_498)"/>
<path d="M2669.39 2530.05C2625.93 2554.96 2579.94 2590.77 2531.45 2637.46C2474.94 2691.4 2440.23 2737.83 2427.31 2776.73C2422.42 2791.94 2407.83 2800.53 2383.54 2802.48C2374.9 2803.17 2363.44 2802.86 2349.1 2801.54C2330.68 2798.89 2321.21 2794.73 2320.67 2789C2320.21 2784.1 2321.67 2774.53 2325.06 2760.25C2334.45 2717.5 2357.1 2664.65 2393.02 2601.65C2444.41 2510.26 2472.43 2459.85 2477.08 2450.41C2485.1 2434.95 2488.64 2422.31 2487.72 2412.51C2487.1 2405.98 2482.48 2398.94 2473.88 2391.39C2473.57 2388.14 2486.77 2379.45 2513.48 2365.36C2540.18 2351.29 2557.07 2343.95 2564.12 2343.38C2566.47 2343.19 2567.8 2344.74 2568.11 2348C2569.19 2359.45 2551.52 2402.44 2515.12 2476.99C2494.52 2518.17 2471.7 2573.53 2446.67 2643.04C2440.37 2660.02 2437.65 2673 2438.5 2681.98C2438.96 2686.88 2440.37 2689.24 2442.72 2689.05C2445.07 2688.86 2448.4 2686.55 2452.72 2682.07C2513.63 2616.26 2575.3 2566.85 2637.75 2533.83C2652.01 2526.11 2659.94 2522.17 2661.51 2522.05C2665.42 2521.74 2668.05 2524.42 2669.37 2530.06L2669.39 2530.05ZM2536.81 2292.48C2532.11 2292.86 2529.6 2291.42 2529.29 2288.14C2529.14 2286.51 2530.6 2281.24 2533.72 2272.35C2536.82 2263.45 2538.04 2255.33 2537.34 2247.98C2537.03 2244.73 2535.8 2240.08 2533.66 2234.08C2531.5 2228.07 2530.33 2223.85 2530.09 2221.4C2529.4 2214.05 2541.19 2209.39 2565.49 2207.44C2626.63 2202.53 2657.81 2206.62 2659.04 2219.68C2659.27 2222.13 2656.75 2224.8 2651.51 2227.69C2640.83 2231.85 2624.99 2239.7 2603.98 2251.27C2567.01 2278.13 2544.62 2291.85 2536.79 2292.48H2536.81Z" fill="url(#paint8_linear_157_498)"/>
<path d="M2866.43 2120.02C2852.39 2121.17 2835.57 2111.65 2815.99 2091.42C2800.92 2075.02 2792.29 2059.36 2790.07 2044.44C2786.26 2018.75 2820.3 1963.49 2892.24 1878.69C2917.17 1849.8 2940.17 1834.48 2961.24 1832.75C2967.48 1832.24 2970.91 1834.06 2971.52 1838.2C2972.38 1844.01 2958.36 1864.04 2929.5 1898.3C2898.64 1935.26 2882.42 1972.25 2880.81 2009.31C2882.36 2041.1 2882.91 2074.2 2882.51 2108.64C2878.03 2115.74 2872.67 2119.52 2866.43 2120.03V2120.02Z" fill="url(#paint9_linear_157_498)"/>
<path d="M3113.76 2350.55C3109.93 2351.28 3107.41 2348.04 3106.18 2340.86C3105.5 2336.88 3105.15 2330.35 3105.19 2321.27C3105.21 2312.21 3104.88 2305.68 3104.2 2301.68C3098.58 2268.96 3084.69 2254.69 3062.52 2258.88C3047.99 2261.63 3035.1 2273.96 3023.88 2295.86C3007.4 2328.65 3005.31 2385.5 3017.63 2466.4C3032.25 2560.88 3037.06 2623.42 3032.07 2654.04C3022.04 2715.27 2982.65 2752.39 2913.85 2765.41C2896.25 2768.74 2876.4 2767.96 2854.26 2763.09C2827.75 2755.75 2813.11 2744.09 2810.37 2728.13C2808.18 2715.37 2810.92 2708.25 2818.55 2706.8C2817.8 2706.94 2826.06 2712.6 2843.36 2723.74C2860.66 2734.88 2878.87 2738.66 2897.98 2735.04C2927.8 2729.4 2946.79 2711.39 2955 2680.98C2963.19 2650.59 2962.76 2585.99 2953.7 2487.15C2944.13 2367 2977.49 2283.22 3053.82 2235.8C3063.83 2229.79 3079.92 2224.68 3102.1 2220.48C3133.44 2214.55 3150.01 2216.79 3151.79 2227.15C3152.2 2229.55 3151.28 2233.43 3149.05 2238.8C3140.51 2262.67 3131.58 2295.68 3122.24 2337.82C3120.41 2345.58 3117.59 2349.83 3113.77 2350.55H3113.76Z" fill="url(#paint10_linear_157_498)"/>
<path d="M69 3157.1L55.5 3275H10.8L42 3054.5L129.9 3190.1L217.8 3054.5L249 3275H204.3L190.8 3157.1L129.9 3255.5L69 3157.1ZM332.763 3227.3L337.863 3193.4H438.663L443.763 3227.3H332.763ZM387.663 3133.1L356.163 3205.4L357.063 3215L329.463 3275H281.163L387.663 3052.7L494.163 3275H445.563L418.563 3216.8L419.163 3206L387.663 3133.1ZM556.245 3204.5C560.645 3212.3 565.445 3219.1 570.645 3224.9C576.045 3230.7 581.945 3235.2 588.345 3238.4C594.745 3241.6 601.645 3243.2 609.045 3243.2C617.645 3243.2 624.645 3241 630.045 3236.6C635.445 3232.2 638.145 3226.2 638.145 3218.6C638.145 3212 636.445 3206.7 633.045 3202.7C629.845 3198.7 624.945 3195.2 618.345 3192.2C611.945 3189 604.045 3185.6 594.645 3182C589.645 3180.2 583.845 3177.8 577.245 3174.8C570.845 3171.6 564.745 3167.6 558.945 3162.8C553.145 3157.8 548.345 3151.8 544.545 3144.8C540.745 3137.6 538.845 3129 538.845 3119C538.845 3107 541.845 3096.7 547.845 3088.1C554.045 3079.3 562.345 3072.6 572.745 3068C583.345 3063.2 595.145 3060.8 608.145 3060.8C621.545 3060.8 633.045 3063.1 642.645 3067.7C652.445 3072.1 660.545 3077.8 666.945 3084.8C673.545 3091.6 678.645 3098.7 682.245 3106.1L648.645 3124.7C645.845 3119.7 642.445 3115.2 638.445 3111.2C634.645 3107 630.245 3103.7 625.245 3101.3C620.245 3098.7 614.545 3097.4 608.145 3097.4C599.745 3097.4 593.445 3099.4 589.245 3103.4C585.045 3107.2 582.945 3111.7 582.945 3116.9C582.945 3122.1 584.645 3126.7 588.045 3130.7C591.445 3134.5 596.645 3138.2 603.645 3141.8C610.645 3145.2 619.445 3148.7 630.045 3152.3C636.845 3154.7 643.345 3157.7 649.545 3161.3C655.945 3164.9 661.645 3169.3 666.645 3174.5C671.845 3179.5 675.845 3185.5 678.645 3192.5C681.645 3199.3 683.145 3207.2 683.145 3216.2C683.145 3226.4 681.145 3235.5 677.145 3243.5C673.145 3251.5 667.645 3258.3 660.645 3263.9C653.645 3269.3 645.745 3273.4 636.945 3276.2C628.345 3279.2 619.245 3280.7 609.645 3280.7C596.845 3280.7 584.845 3278.3 573.645 3273.5C562.645 3268.5 553.045 3261.8 544.845 3253.4C536.645 3245 530.245 3235.9 525.645 3226.1L556.245 3204.5ZM757.42 3204.5C761.82 3212.3 766.62 3219.1 771.82 3224.9C777.22 3230.7 783.12 3235.2 789.52 3238.4C795.92 3241.6 802.82 3243.2 810.22 3243.2C818.82 3243.2 825.82 3241 831.22 3236.6C836.62 3232.2 839.32 3226.2 839.32 3218.6C839.32 3212 837.62 3206.7 834.22 3202.7C831.02 3198.7 826.12 3195.2 819.52 3192.2C813.12 3189 805.22 3185.6 795.82 3182C790.82 3180.2 785.02 3177.8 778.42 3174.8C772.02 3171.6 765.92 3167.6 760.12 3162.8C754.32 3157.8 749.52 3151.8 745.72 3144.8C741.92 3137.6 740.02 3129 740.02 3119C740.02 3107 743.02 3096.7 749.02 3088.1C755.22 3079.3 763.52 3072.6 773.92 3068C784.52 3063.2 796.32 3060.8 809.32 3060.8C822.72 3060.8 834.22 3063.1 843.82 3067.7C853.62 3072.1 861.72 3077.8 868.12 3084.8C874.72 3091.6 879.82 3098.7 883.42 3106.1L849.82 3124.7C847.02 3119.7 843.62 3115.2 839.62 3111.2C835.82 3107 831.42 3103.7 826.42 3101.3C821.42 3098.7 815.72 3097.4 809.32 3097.4C800.92 3097.4 794.62 3099.4 790.42 3103.4C786.22 3107.2 784.12 3111.7 784.12 3116.9C784.12 3122.1 785.82 3126.7 789.22 3130.7C792.62 3134.5 797.82 3138.2 804.82 3141.8C811.82 3145.2 820.62 3148.7 831.22 3152.3C838.02 3154.7 844.52 3157.7 850.72 3161.3C857.12 3164.9 862.82 3169.3 867.82 3174.5C873.02 3179.5 877.02 3185.5 879.82 3192.5C882.82 3199.3 884.32 3207.2 884.32 3216.2C884.32 3226.4 882.32 3235.5 878.32 3243.5C874.32 3251.5 868.82 3258.3 861.82 3263.9C854.82 3269.3 846.92 3273.4 838.12 3276.2C829.52 3279.2 820.42 3280.7 810.82 3280.7C798.02 3280.7 786.02 3278.3 774.82 3273.5C763.82 3268.5 754.22 3261.8 746.02 3253.4C737.82 3245 731.42 3235.9 726.82 3226.1L757.42 3204.5ZM969.396 3227.3L974.496 3193.4H1075.3L1080.4 3227.3H969.396ZM1024.3 3133.1L992.796 3205.4L993.696 3215L966.096 3275H917.796L1024.3 3052.7L1130.8 3275H1082.2L1055.2 3216.8L1055.8 3206L1024.3 3133.1ZM1267.5 3197V3162.8H1371C1371.6 3178.8 1369.7 3193.9 1365.3 3208.1C1361.1 3222.3 1354.4 3234.9 1345.2 3245.9C1336.2 3256.7 1325 3265.2 1311.6 3271.4C1298.2 3277.6 1282.9 3280.7 1265.7 3280.7C1249.5 3280.7 1234.5 3278 1220.7 3272.6C1207.1 3267.2 1195.2 3259.6 1185 3249.8C1175 3240 1167.2 3228.3 1161.6 3214.7C1156.2 3201.1 1153.5 3186.2 1153.5 3170C1153.5 3153.8 1156.3 3139 1161.9 3125.6C1167.7 3112 1175.7 3100.4 1185.9 3090.8C1196.1 3081.2 1208.1 3073.8 1221.9 3068.6C1235.7 3063.4 1250.7 3060.8 1266.9 3060.8C1281.3 3060.8 1294.2 3062.8 1305.6 3066.8C1317.2 3070.8 1327.4 3076.4 1336.2 3083.6C1345.2 3090.6 1352.9 3099 1359.3 3108.8L1322.7 3130.1C1317.5 3120.9 1310.2 3113.5 1300.8 3107.9C1291.6 3102.1 1280.3 3099.2 1266.9 3099.2C1254.3 3099.2 1242.8 3102.1 1232.4 3107.9C1222 3113.5 1213.7 3121.6 1207.5 3132.2C1201.5 3142.8 1198.5 3155.4 1198.5 3170C1198.5 3184.4 1201.5 3197.1 1207.5 3208.1C1213.5 3218.9 1221.6 3227.3 1231.8 3233.3C1242.2 3239.3 1253.9 3242.3 1266.9 3242.3C1275.5 3242.3 1283.2 3241.2 1290 3239C1296.8 3236.6 1302.6 3233.3 1307.4 3229.1C1312.4 3224.9 1316.6 3220.1 1320 3214.7C1323.4 3209.3 1326 3203.4 1327.8 3197H1267.5ZM1454.62 3275V3238.7H1560.52V3275H1454.62ZM1454.62 3101.3V3065H1560.52V3101.3H1454.62ZM1454.62 3181.4V3145.7H1554.52V3181.4H1454.62ZM1427.02 3065H1468.42V3275H1427.02V3065ZM1713.75 3103.7V3065H1869.75V3103.7H1813.05V3275H1770.15V3103.7H1713.75ZM1929.22 3182.6V3143.9H2083.42V3182.6H1929.22ZM2056.12 3065H2099.02V3275H2056.12V3065ZM1915.12 3065H1958.02V3275H1915.12V3065ZM2192.82 3275V3238.7H2298.72V3275H2192.82ZM2192.82 3101.3V3065H2298.72V3101.3H2192.82ZM2192.82 3181.4V3145.7H2292.72V3181.4H2192.82ZM2165.22 3065H2206.62V3275H2165.22V3065ZM2409.7 3177.2H2455L2523.4 3275H2472.7L2409.7 3177.2ZM2362 3065H2404.9V3275H2362V3065ZM2388.1 3101.6V3065H2432.5C2449.1 3065 2463.2 3067.8 2474.8 3073.4C2486.4 3079 2495.3 3086.8 2501.5 3096.8C2507.7 3106.8 2510.8 3118.5 2510.8 3131.9C2510.8 3145.1 2507.7 3156.8 2501.5 3167C2495.3 3177 2486.4 3184.8 2474.8 3190.4C2463.2 3196 2449.1 3198.8 2432.5 3198.8H2388.1V3164.6H2429.8C2437.4 3164.6 2443.9 3163.4 2449.3 3161C2454.9 3158.4 2459.2 3154.8 2462.2 3150.2C2465.2 3145.4 2466.7 3139.7 2466.7 3133.1C2466.7 3126.5 2465.2 3120.9 2462.2 3116.3C2459.2 3111.5 2454.9 3107.9 2449.3 3105.5C2443.9 3102.9 2437.4 3101.6 2429.8 3101.6H2388.1ZM2598.14 3227.3L2603.24 3193.4H2704.04L2709.14 3227.3H2598.14ZM2653.04 3133.1L2621.54 3205.4L2622.44 3215L2594.84 3275H2546.54L2653.04 3052.7L2759.54 3275H2710.94L2683.94 3216.8L2684.54 3206L2653.04 3133.1ZM2803.32 3065H2846.22V3275H2803.32V3065ZM2829.42 3101.3V3065H2871.12C2887.72 3065 2901.82 3067.7 2913.42 3073.1C2925.22 3078.5 2934.22 3086.2 2940.42 3096.2C2946.62 3106.2 2949.72 3118.1 2949.72 3131.9C2949.72 3145.5 2946.62 3157.4 2940.42 3167.6C2934.22 3177.6 2925.22 3185.3 2913.42 3190.7C2901.82 3196.1 2887.72 3198.8 2871.12 3198.8H2829.42V3162.5H2871.12C2882.52 3162.5 2891.52 3159.9 2898.12 3154.7C2904.72 3149.5 2908.02 3141.9 2908.02 3131.9C2908.02 3121.7 2904.72 3114.1 2898.12 3109.1C2891.52 3103.9 2882.52 3101.3 2871.12 3101.3H2829.42ZM3111.53 3065H3160.43L3088.13 3188V3275H3044.63V3188.3L2972.33 3065H3021.23L3066.23 3149.6L3111.53 3065Z" fill="#C7A161"/>
<defs>
<linearGradient id="paint0_linear_157_498" x1="2165.53" y1="290.67" x2="2871.87" y2="970.31" gradientUnits="userSpaceOnUse">
<stop stop-color="#977462"/>
<stop offset="0.09" stop-color="#B29177"/>
<stop offset="0.21" stop-color="#CEAF8C"/>
<stop offset="0.32" stop-color="#E2C59C"/>
<stop offset="0.43" stop-color="#EED2A5"/>
<stop offset="0.54" stop-color="#F3D7A9"/>
<stop offset="0.61" stop-color="#ECCFA3"/>
<stop offset="0.73" stop-color="#D9BB95"/>
<stop offset="0.87" stop-color="#BA9A7D"/>
<stop offset="1" stop-color="#977462"/>
</linearGradient>
<linearGradient id="paint1_linear_157_498" x1="2138.22" y1="319.061" x2="2844.56" y2="998.691" gradientUnits="userSpaceOnUse">
<stop stop-color="#977462"/>
<stop offset="0.09" stop-color="#B29177"/>
<stop offset="0.21" stop-color="#CEAF8C"/>
<stop offset="0.32" stop-color="#E2C59C"/>
<stop offset="0.43" stop-color="#EED2A5"/>
<stop offset="0.54" stop-color="#F3D7A9"/>
<stop offset="0.61" stop-color="#ECCFA3"/>
<stop offset="0.73" stop-color="#D9BB95"/>
<stop offset="0.87" stop-color="#BA9A7D"/>
<stop offset="1" stop-color="#977462"/>
</linearGradient>
<linearGradient id="paint2_linear_157_498" x1="3163.06" y1="988.571" x2="2031.25" y2="1753.95" gradientUnits="userSpaceOnUse">
<stop offset="0.09" stop-color="#EEC392"/>
<stop offset="0.32" stop-color="#F4DCB5"/>
<stop offset="0.4" stop-color="#E8CDA7"/>
<stop offset="0.57" stop-color="#C9A782"/>
<stop offset="0.79" stop-color="#996A47"/>
<stop offset="0.83" stop-color="#91603E"/>
<stop offset="0.9" stop-color="#B58869"/>
<stop offset="1" stop-color="#E9C2A7"/>
</linearGradient>
<linearGradient id="paint3_linear_157_498" x1="435.482" y1="889.681" x2="1560.94" y2="1770.08" gradientUnits="userSpaceOnUse">
<stop offset="0.09" stop-color="#EEC392"/>
<stop offset="0.32" stop-color="#F4DCB5"/>
<stop offset="0.4" stop-color="#E8CDA7"/>
<stop offset="0.57" stop-color="#C9A782"/>
<stop offset="0.79" stop-color="#996A47"/>
<stop offset="0.83" stop-color="#91603E"/>
<stop offset="0.9" stop-color="#B58869"/>
<stop offset="1" stop-color="#E9C2A7"/>
</linearGradient>
<linearGradient id="paint4_linear_157_498" x1="804.181" y1="762.77" x2="1209.57" y2="752.41" gradientUnits="userSpaceOnUse">
<stop stop-color="#977462"/>
<stop offset="0.46" stop-color="#BF9F80"/>
<stop offset="1" stop-color="#F3D7A9"/>
</linearGradient>
<linearGradient id="paint5_linear_157_498" x1="1054.19" y1="843.661" x2="2327.68" y2="843.661" gradientUnits="userSpaceOnUse">
<stop stop-color="#977462"/>
<stop offset="0.09" stop-color="#B29177"/>
<stop offset="0.21" stop-color="#CEAF8C"/>
<stop offset="0.32" stop-color="#E2C59C"/>
<stop offset="0.43" stop-color="#EED2A5"/>
<stop offset="0.54" stop-color="#F3D7A9"/>
<stop offset="0.61" stop-color="#ECCFA3"/>
<stop offset="0.73" stop-color="#D9BB95"/>
<stop offset="0.87" stop-color="#BA9A7D"/>
<stop offset="1" stop-color="#977462"/>
</linearGradient>
<linearGradient id="paint6_linear_157_498" x1="0.470646" y1="2427.96" x2="2050.68" y2="2427.96" gradientUnits="userSpaceOnUse">
<stop offset="1" stop-color="#C7A161"/>
</linearGradient>
<linearGradient id="paint7_linear_157_498" x1="1787.41" y1="2606.05" x2="2431.71" y2="2606.05" gradientUnits="userSpaceOnUse">
<stop offset="1" stop-color="#C7A161"/>
</linearGradient>
<linearGradient id="paint8_linear_157_498" x1="2320.59" y1="2504.13" x2="2669.39" y2="2504.13" gradientUnits="userSpaceOnUse">
<stop offset="1" stop-color="#C7A161"/>
</linearGradient>
<linearGradient id="paint9_linear_157_498" x1="2789.78" y1="1976.38" x2="2971.57" y2="1976.38" gradientUnits="userSpaceOnUse">
<stop offset="1" stop-color="#C7A161"/>
</linearGradient>
<linearGradient id="paint10_linear_157_498" x1="2809.62" y1="2492.34" x2="3151.88" y2="2492.34" gradientUnits="userSpaceOnUse">
<stop offset="1" stop-color="#C7A161"/>
</linearGradient>
</defs>
</svg>
